<svg width="173" height="48" viewBox="0 0 173 48" fill="none" xmlns="http://www.w3.org/2000/svg">
<g clip-path="url(#clip0_20_148)">
<path d="M10.0706 47.9643C10.0706 47.9501 10.0706 47.9239 10.0706 47.9191C10.1259 47.8816 10.186 47.8512 10.2492 47.8288C11.9091 47.4149 13.5667 46.9963 15.2314 46.592C16.4378 46.2995 17.6442 46.026 18.8505 45.7453L19.4923 45.5907C19.5575 45.5765 19.625 45.5622 19.6902 45.5432C20.3751 45.3641 21.0037 45.019 21.5187 44.5392C22.0336 44.0594 22.4186 43.4602 22.6385 42.7962C22.812 42.3072 22.938 41.8031 23.0149 41.2907C23.1969 40.0642 23.2527 38.8227 23.1814 37.5852C23.1524 37.0667 23.1283 36.5482 23.1187 36.0297C23.1085 35.7106 23.0261 35.3977 22.8774 35.1141C22.5725 34.5122 22.0908 34.0149 21.4949 33.687C21.202 33.5165 20.8699 33.4223 20.5298 33.4135C19.4441 33.3874 18.3583 33.3517 17.2726 33.316C16.7635 33.2994 16.2544 33.2708 15.7454 33.2542C15.3046 33.2399 14.8631 33.2304 14.4208 33.2257C13.4865 33.2128 12.5583 33.0768 11.6606 32.8213C11.2198 32.6991 10.7891 32.5441 10.3722 32.3576C10.3201 32.3285 10.2607 32.3146 10.2009 32.3176C10.1411 32.3205 10.0833 32.3402 10.0344 32.3742C9.93792 32.4408 9.83417 32.5002 9.73283 32.5621C8.62308 33.2459 7.41177 33.7547 6.14269 34.07C5.40241 34.2583 4.63896 34.3431 3.87473 34.3221C2.53834 34.2839 1.25161 33.8143 0.212202 32.9854C0.158724 32.9443 0.107955 32.8998 0.0602 32.8522C0.0357378 32.8216 0.0139456 32.789 -0.00494385 32.7547C0.0169432 32.6968 0.044413 32.641 0.077089 32.5883C0.790702 31.5643 1.70448 30.691 2.76487 30.0196C3.40747 29.6094 4.12035 29.3176 4.86877 29.1587C5.46681 29.0303 6.0821 28.9989 6.69038 29.0659C7.55074 29.1736 8.38347 29.4373 9.14654 29.8436C9.46046 30.0103 9.76491 30.1937 10.0586 30.393C10.2671 30.5351 10.4977 30.6428 10.7414 30.7117C11.8983 31.0585 13.1005 31.2364 14.3098 31.2397L17.263 31.2159C17.3305 31.2159 17.4005 31.2159 17.468 31.2159C17.5019 31.2138 17.5348 31.2036 17.5638 31.1862C17.5928 31.1688 17.617 31.1447 17.6345 31.116C17.6483 31.0858 17.6531 31.0523 17.6484 31.0195C17.6437 30.9867 17.6297 30.9559 17.608 30.9305C17.577 30.8908 17.544 30.8527 17.5091 30.8164L15.533 28.859C15.4997 28.8215 15.4606 28.7894 15.4172 28.7638C15.3724 28.7421 15.3218 28.7346 15.2725 28.7424C15.1591 28.7781 15.0529 28.8328 14.9419 28.8709C14.3503 29.0817 13.7076 29.1106 13.0989 28.9537C12.4903 28.7967 11.9443 28.4614 11.5331 27.9919C11.122 27.5225 10.8651 26.9411 10.7963 26.3246C10.7276 25.7082 10.8503 25.0857 11.1483 24.5394C11.4462 23.9932 11.9053 23.549 12.4649 23.2655C13.0244 22.982 13.6581 22.8726 14.2821 22.9518C14.9061 23.031 15.491 23.295 15.9595 23.7089C16.428 24.1229 16.758 24.6672 16.9059 25.27C17.0486 25.8415 17.0192 26.4415 16.8214 26.9967C16.7964 27.078 16.7658 27.1575 16.7298 27.2346C16.6891 27.2993 16.6754 27.3771 16.6916 27.4516C16.7078 27.5261 16.7526 27.5915 16.8166 27.6341C16.8914 27.7007 16.9566 27.7792 17.0265 27.8529L19.4899 30.3954C19.5237 30.4311 19.5599 30.4668 19.5937 30.5048C19.9087 30.8386 20.3269 31.0602 20.7831 31.1351C21.4507 31.2568 22.0994 31.4631 22.7133 31.7487C23.1924 31.9646 23.6423 32.2386 24.0524 32.5645C24.3857 32.8253 24.6784 33.133 24.921 33.4778C25.3049 34.0236 25.5218 34.6667 25.5459 35.3305C25.5917 36.4507 25.6593 37.5709 25.7123 38.6911C25.7703 39.8946 25.8233 41.0988 25.8716 42.3038C25.9115 43.1665 25.6115 44.0111 25.0344 44.6608C24.8237 44.902 24.5801 45.1133 24.3106 45.2887C23.8473 45.6058 23.3857 45.9189 22.9256 46.2281C22.8722 46.2677 22.8237 46.3132 22.7809 46.3637C22.7809 46.3637 22.7809 46.3946 22.7809 46.4089C22.7853 46.4234 22.7947 46.436 22.8074 46.4446C22.8224 46.4521 22.8389 46.4561 22.8557 46.4564C23.417 46.4532 23.9735 46.3551 24.5012 46.1663C25.2414 45.8994 25.8653 45.3885 26.2673 44.7202C26.4972 44.3463 26.6382 43.9259 26.6799 43.4906C26.6992 43.2528 26.7185 42.9912 26.7209 42.7391C26.7386 41.0837 26.753 39.4268 26.7643 37.7683C26.7643 36.8312 26.7691 35.8942 26.7788 34.9571C26.7827 33.7803 26.4381 32.6281 25.7871 31.6417C25.5457 31.2774 25.2667 30.9387 24.9548 30.6309C24.0669 29.7287 23.1822 28.8265 22.3007 27.9243L20.1607 25.7695L20.0545 25.6625C19.8616 25.4726 19.7098 25.2461 19.6082 24.9968C19.5066 24.7474 19.4573 24.4803 19.4634 24.2117C19.4634 23.6266 19.4634 23.0391 19.4634 22.4541C19.4634 22.2876 19.4634 22.1211 19.4634 21.9665C19.3599 21.8716 19.2294 21.8102 19.0894 21.7905C18.4688 21.5868 17.9295 21.1948 17.5485 20.6707C17.1676 20.1465 16.9646 19.517 16.9686 18.8723C16.9691 18.3406 17.1103 17.8182 17.3781 17.3566C17.6459 16.8951 18.0311 16.5104 18.4958 16.2404C18.9604 15.9704 19.4885 15.8244 20.0278 15.817C20.5672 15.8095 21.0991 15.9408 21.5713 16.1978C22.0435 16.4548 22.4395 16.8288 22.7204 17.2827C23.0012 17.7366 23.1572 18.2549 23.1728 18.7864C23.1885 19.3179 23.0634 19.8442 22.8097 20.3134C22.5561 20.7827 22.1828 21.1787 21.7265 21.4623C21.5842 21.5503 21.4346 21.6312 21.2802 21.7192C21.2802 21.8024 21.2609 21.8856 21.2609 21.957C21.2609 22.3732 21.2826 22.7918 21.2995 23.2104C21.2995 23.3769 21.3284 23.5434 21.3501 23.7098C21.396 24.0607 21.554 24.3881 21.8013 24.6445C21.893 24.7444 21.9943 24.8348 22.0884 24.9299C22.8364 25.6625 23.5867 26.3879 24.325 27.1275C25.1759 27.9495 25.9737 28.8233 26.7136 29.7437C26.7329 29.7699 26.7957 29.7604 26.8584 29.7723V19.9663C26.868 19.7152 26.8486 19.4639 26.8005 19.2171C26.7392 18.9388 26.6146 18.6777 26.4362 18.4537C26.3421 18.3348 26.2383 18.2158 26.1346 18.1136L22.6964 14.4081C22.6048 14.3106 22.5131 14.2107 22.4141 14.1203C22.1678 13.8878 21.8682 13.7173 21.5407 13.6232C21.4418 13.5971 21.3429 13.5685 21.244 13.5447C18.9857 13.0263 17.4077 11.6991 16.4837 9.61332C16.1927 8.93462 15.9853 8.22397 15.866 7.49659C15.7815 7.03519 15.7598 6.56664 15.7043 6.10049C15.6971 5.98406 15.6971 5.8673 15.7043 5.75087C15.7056 5.71769 15.7187 5.686 15.7411 5.66126C15.7636 5.63651 15.7941 5.62026 15.8274 5.61531C15.9077 5.60989 15.9883 5.60989 16.0687 5.61531C17.2297 5.77691 18.359 6.11214 19.4175 6.60946C20.0466 6.90467 20.6319 7.28315 21.1571 7.73442C22.2374 8.65088 22.9325 9.9313 23.1066 11.3257C23.1625 11.8116 23.3826 12.2648 23.7315 12.6124C24.6797 13.5638 25.6231 14.5365 26.5665 15.4974C26.6131 15.5454 26.6639 15.5891 26.7185 15.6282C26.7402 15.6425 26.7812 15.6282 26.8126 15.6282C26.8439 15.6282 26.8367 15.6068 26.8391 15.5925C26.8475 15.543 26.8523 15.4929 26.8536 15.4427C26.8536 12.9502 26.8536 10.4481 26.8536 7.96274C26.8628 6.92817 26.5139 5.92143 25.8644 5.10872L25.7099 4.91131C25.3992 4.5104 25.1944 4.03965 25.114 3.54138C25.0447 3.12545 25.0635 2.6999 25.1691 2.29146C25.2747 1.88302 25.4648 1.50053 25.7276 1.16802C25.9904 0.835519 26.3201 0.560188 26.696 0.35934C27.0719 0.158491 27.4859 0.0364657 27.912 0.000931433C28.3381 -0.0346028 28.767 0.0171247 29.1718 0.152859C29.5766 0.288594 29.9486 0.505405 30.2643 0.789662C30.58 1.07392 30.8326 1.41948 31.0064 1.80462C31.1801 2.18977 31.2711 2.60617 31.2737 3.02765C31.2848 3.7027 31.0656 4.36185 30.6512 4.89942C30.5909 4.98028 30.5233 5.05639 30.463 5.13725C29.845 5.92518 29.5098 6.89304 29.51 7.88901C29.51 8.0222 29.51 8.15539 29.51 8.29096V25.4627C29.51 25.6149 29.51 25.7647 29.51 25.9146C29.5139 25.9577 29.5237 26.0001 29.5389 26.0406C29.5872 26.0716 29.6113 26.062 29.6379 26.0287C30.8249 24.5803 32.1592 23.2675 33.4765 21.9403C33.7178 21.7025 33.9591 21.4647 34.2003 21.2268C34.1842 21.1762 34.1623 21.1276 34.1352 21.0818C34.0483 20.9795 33.9494 20.8844 33.865 20.7821C33.4417 20.2593 33.2037 19.6143 33.1872 18.9456C33.1707 18.2769 33.3767 17.6213 33.7738 17.0789C34.1708 16.5364 34.737 16.137 35.3859 15.9416C36.0349 15.7462 36.7309 15.7655 37.3676 15.9966C38.0044 16.2277 38.5469 16.6579 38.9123 17.2215C39.2778 17.7851 39.446 18.4512 39.3914 19.1179C39.3367 19.7846 39.0622 20.4153 38.6098 20.9138C38.1574 21.4123 37.5518 21.7511 36.8857 21.8785L36.5383 21.957C36.3405 22.0074 36.1593 22.1073 36.0123 22.2472C35.923 22.328 35.841 22.4113 35.759 22.485C34.3113 23.9643 32.858 25.4437 31.3991 26.923C30.6318 27.6886 30.0761 28.6351 29.785 29.6724C29.6215 30.254 29.5403 30.855 29.5438 31.4585C29.5438 32.681 29.5679 33.9011 29.5751 35.1236C29.5928 37.7176 29.6073 40.3116 29.6186 42.9056C29.6142 43.1905 29.6401 43.475 29.6958 43.7546C29.8497 44.5004 30.2722 45.1661 30.8852 45.6288C31.4228 46.0441 32.0668 46.3043 32.7455 46.3803C33.0116 46.4313 33.2832 46.4481 33.5537 46.4303C33.5537 46.4303 33.5754 46.4089 33.5778 46.397C33.5828 46.3815 33.5828 46.3649 33.5778 46.3494C33.5477 46.3106 33.5128 46.2754 33.4741 46.2448L32.1085 45.2792C31.9975 45.2007 31.8841 45.127 31.7804 45.0413C31.35 44.7093 31.0061 44.2808 30.7774 43.7914C30.5487 43.3021 30.4418 42.766 30.4654 42.2277C30.4847 41.2241 30.5523 40.2228 30.5981 39.2191C30.5981 39.1192 30.6126 39.0193 30.6174 38.9194C30.6609 37.7469 30.7115 36.5768 30.7501 35.4066C30.7575 35.055 30.8102 34.7057 30.907 34.3673C31.0664 33.8533 31.3457 33.3833 31.7225 32.9949C32.0972 32.6052 32.53 32.2739 33.006 32.0127C33.6435 31.6618 34.3249 31.3948 35.0327 31.2183C35.2113 31.1707 35.3946 31.1351 35.578 31.1018C36.0169 31.0292 36.4199 30.818 36.7265 30.5001C37.6739 29.5186 38.6237 28.5379 39.5759 27.558C39.6217 27.5061 39.6628 27.4504 39.6989 27.3915C39.6459 27.2631 39.588 27.1418 39.5445 27.0181C39.3251 26.4307 39.2937 25.7911 39.4545 25.1855C39.6154 24.5799 39.9607 24.0375 40.4439 23.6313C40.9272 23.2252 41.5251 22.9749 42.1571 22.9141C42.7892 22.8534 43.4249 22.9851 43.9787 23.2916C44.5324 23.598 44.9775 24.0645 45.254 24.628C45.5304 25.1916 45.625 25.8251 45.5248 26.4433C45.4247 27.0614 45.1347 27.6345 44.694 28.0851C44.2532 28.5358 43.6829 28.8424 43.0599 28.9636C42.5075 29.0788 41.9332 29.0359 41.4047 28.84C41.2938 28.7971 41.1852 28.7448 41.0742 28.7115C41.0251 28.7022 40.9742 28.7116 40.9318 28.7377C40.8757 28.7756 40.8246 28.8203 40.7798 28.8709L38.881 30.764L38.8086 30.8354C38.7025 30.9496 38.6759 31.0304 38.7242 31.0994C38.7491 31.1336 38.7828 31.1606 38.8218 31.1777C38.8608 31.1948 38.9037 31.2015 38.9462 31.1969H39.4553L42.1093 31.2159C43.3152 31.2087 44.5138 31.03 45.668 30.6856C45.8958 30.6177 46.1104 30.5123 46.3026 30.374C46.928 29.9407 47.6118 29.5956 48.3341 29.3489C48.9283 29.145 49.5509 29.0327 50.1798 29.016C50.9796 29.0039 51.7731 29.1554 52.5105 29.4607C53.1544 29.7239 53.7578 30.0745 54.3032 30.5024C55.0223 31.0657 55.6595 31.7235 56.1972 32.4574C56.248 32.5237 56.291 32.5955 56.3251 32.6715C56.3384 32.7184 56.3332 32.7685 56.3106 32.8118C56.2848 32.8548 56.2503 32.892 56.2093 32.9212C55.3543 33.6182 54.3222 34.0714 53.2247 34.2317C52.2303 34.3659 51.2188 34.3069 50.2474 34.0581C48.9601 33.7459 47.7324 33.2311 46.6114 32.5335C46.4956 32.4646 46.3822 32.3908 46.264 32.3242C46.2341 32.3076 46.2007 32.2979 46.1664 32.2959C46.1322 32.2938 46.0979 32.2994 46.0661 32.3124C45.972 32.3457 45.8779 32.3837 45.7838 32.4241C44.8905 32.7932 43.9479 33.0335 42.9851 33.1376C42.6135 33.1781 42.242 33.1995 41.868 33.2114C41.19 33.228 40.512 33.2542 39.8341 33.2756L39.0186 33.3018C37.9497 33.3351 36.8809 33.3707 35.812 33.3969C35.5048 33.405 35.2043 33.4866 34.9362 33.6347C34.2848 33.9743 33.7631 34.5136 33.45 35.1712C33.3499 35.3656 33.2885 35.5771 33.269 35.7943C33.2545 35.9941 33.2328 36.1938 33.228 36.3936C33.2015 37.1476 33.1653 37.9015 33.1629 38.6531C33.1479 39.6414 33.2287 40.629 33.4041 41.6022C33.5052 42.1617 33.6745 42.7072 33.9084 43.2266C34.1277 43.7176 34.4449 44.1601 34.8412 44.5278C35.2374 44.8955 35.7046 45.1809 36.215 45.3672C36.4997 45.4765 36.7915 45.567 37.0884 45.6383C38.01 45.8619 38.9365 46.0664 39.8582 46.2923C41.4538 46.6856 43.0478 47.0819 44.6402 47.4815C45.0817 47.5933 45.5209 47.7194 45.96 47.843C45.9889 47.843 46.0106 47.8835 46.0348 47.9049C46.0589 47.9263 46.0106 47.9715 45.931 47.9738H45.779H10.7269C10.5218 47.9738 10.3191 47.9738 10.1165 47.9619C10.1014 47.9648 10.0859 47.9656 10.0706 47.9643ZM29.6306 3.07522C29.6306 2.79369 29.5461 2.51847 29.3878 2.28417C29.2294 2.04987 29.0043 1.86698 28.7408 1.7585C28.4773 1.65002 28.1871 1.6208 27.9067 1.67453C27.6264 1.72825 27.3684 1.86252 27.1653 2.06043C26.9622 2.25834 26.823 2.51105 26.7653 2.78675C26.7075 3.06246 26.7338 3.34885 26.8408 3.60987C26.9477 3.8709 27.1307 4.0949 27.3665 4.25369C27.6023 4.41247 27.8805 4.49895 28.1661 4.50223C28.5516 4.50225 28.9216 4.35245 29.1957 4.0853C29.4699 3.81815 29.6262 3.45521 29.6306 3.07522ZM13.8658 27.401C14.1516 27.4038 14.4318 27.3231 14.6712 27.1692C14.9105 27.0152 15.0983 26.7949 15.2108 26.5359C15.3233 26.277 15.3556 25.991 15.3035 25.714C15.2514 25.437 15.1173 25.1814 14.918 24.9794C14.7188 24.7774 14.4634 24.638 14.184 24.5789C13.9046 24.5198 13.6137 24.5435 13.3479 24.647C13.0821 24.7506 12.8534 24.9294 12.6905 25.1609C12.5276 25.3924 12.4379 25.6662 12.4327 25.9479C12.4292 26.1363 12.4635 26.3235 12.5338 26.4987C12.6041 26.6739 12.7089 26.8337 12.8421 26.9688C12.9753 27.1039 13.1344 27.2117 13.3101 27.2859C13.4858 27.3601 13.6747 27.3992 13.8658 27.401ZM36.2608 17.4452C35.9749 17.4519 35.6974 17.5418 35.4633 17.7038C35.2292 17.8657 35.049 18.0923 34.9454 18.3551C34.8419 18.6179 34.8196 18.905 34.8814 19.1802C34.9432 19.4555 35.0863 19.7065 35.2927 19.9017C35.499 20.0968 35.7594 20.2273 36.041 20.2768C36.3225 20.3262 36.6126 20.2923 36.8747 20.1794C37.1367 20.0665 37.3589 19.8796 37.5133 19.6423C37.6677 19.405 37.7474 19.128 37.7422 18.8461C37.7388 18.6581 37.6977 18.4726 37.6213 18.3003C37.5448 18.128 37.4346 17.9722 37.297 17.8421C37.1593 17.7119 36.9969 17.6098 36.8191 17.5417C36.6412 17.4736 36.4515 17.4408 36.2608 17.4452ZM18.6189 18.8723C18.6151 19.2507 18.7639 19.6152 19.0327 19.8855C19.3015 20.1558 19.6681 20.3098 20.0521 20.3135C20.436 20.3173 20.8058 20.1706 21.08 19.9057C21.3542 19.6407 21.5104 19.2793 21.5142 18.9008C21.5161 18.7134 21.4805 18.5275 21.4095 18.3536C21.3385 18.1798 21.2335 18.0214 21.1004 17.8876C20.8317 17.6173 20.465 17.4633 20.081 17.4595C19.6971 17.4557 19.3274 17.6025 19.0532 17.8674C18.779 18.1323 18.6228 18.4938 18.6189 18.8723ZM42.4688 27.4106C42.7551 27.4106 43.035 27.3269 43.273 27.1701C43.5111 27.0133 43.6966 26.7904 43.8062 26.5296C43.9158 26.2689 43.9444 25.982 43.8886 25.7052C43.8327 25.4283 43.6948 25.1741 43.4924 24.9745C43.2899 24.7749 43.032 24.639 42.7512 24.584C42.4704 24.5289 42.1793 24.5572 41.9148 24.6652C41.6502 24.7732 41.4242 24.9561 41.2651 25.1907C41.106 25.4254 41.0211 25.7013 41.0211 25.9835C41.0298 26.3584 41.1854 26.7155 41.4553 26.9797C41.7252 27.244 42.0884 27.395 42.4688 27.401V27.4106Z" fill="white"/>
<g opacity="0.5">
<path d="M30.2146 16.7103C30.1873 16.6867 30.1658 16.6574 30.1515 16.6244C30.1373 16.5915 30.1309 16.5558 30.1326 16.5201C30.1341 16.185 30.1912 15.8524 30.3015 15.5354C30.4596 15.0573 30.7049 14.6115 31.0253 14.2202C31.2576 13.9313 31.5169 13.6646 31.7998 13.4234C31.9011 13.3354 32.0049 13.2474 32.1014 13.1523C32.3408 12.9145 32.5079 12.6155 32.5839 12.289C32.6539 11.9964 32.7094 11.6991 32.777 11.4066C32.9135 10.8195 33.1116 10.248 33.3681 9.70131C34.0648 8.17229 35.3236 6.96039 36.8907 6.30978C37.5446 6.03117 38.2286 5.8269 38.9294 5.70092C39.2789 5.63477 39.6316 5.58635 39.9862 5.55584C40.0029 5.5552 40.0195 5.55785 40.0351 5.56364C40.0508 5.56942 40.065 5.57821 40.0772 5.5895C40.0893 5.6008 40.099 5.61437 40.1058 5.62942C40.1125 5.64446 40.1162 5.66068 40.1165 5.67713C40.1165 5.86027 40.1165 6.04578 40.1165 6.22891C40.0543 7.31522 39.819 8.38511 39.4192 9.39927C38.7928 10.9919 37.5892 12.2987 36.0414 13.0667C35.617 13.2775 35.1784 13.4595 34.7289 13.6113C34.6492 13.6399 34.5672 13.6589 34.4876 13.6874C34.0668 13.8309 33.7072 14.1099 33.467 14.4794C33.315 14.703 33.1678 14.9289 33.0013 15.1382C32.4482 15.8466 31.677 16.359 30.8033 16.5985C30.6104 16.6512 30.4136 16.6885 30.2146 16.7103Z" fill="white"/>
</g>
<g opacity="0.5">
<path d="M39.0742 22.7133C39.0474 22.689 39.0265 22.6591 39.0132 22.6257C38.9998 22.5923 38.9942 22.5564 38.9969 22.5207C39.007 22.0849 39.1028 21.6551 39.2792 21.2554C39.5334 20.669 39.907 20.1404 40.377 19.7023C40.5339 19.5501 40.7052 19.4121 40.8596 19.2647C41.1675 18.9963 41.3806 18.638 41.4676 18.242C41.4917 18.1278 41.5182 18.0042 41.54 17.8995C41.6553 17.2744 41.8348 16.6624 42.0756 16.0729C42.4328 15.1645 42.9859 14.3434 43.6966 13.6662C44.4072 12.9891 45.2585 12.4721 46.1917 12.151C46.9072 11.8866 47.6525 11.7085 48.4114 11.6207L48.6117 11.5921C48.9543 11.5327 49.0025 11.5445 48.9905 11.8989C48.9623 13.0878 48.7272 14.2632 48.2956 15.3737C47.6519 17.0347 46.3845 18.388 44.7561 19.1529C44.3435 19.3491 43.9179 19.5175 43.4822 19.6571C43.3528 19.697 43.2262 19.7455 43.1034 19.8022C42.7837 19.9615 42.513 20.202 42.3193 20.4991C42.1576 20.7369 42.0008 20.9747 41.8198 21.1959C41.2695 21.8883 40.5084 22.3884 39.6484 22.6229C39.4609 22.6735 39.2683 22.7038 39.0742 22.7133Z" fill="white"/>
</g>
<path d="M7.07416 11.5612C8.34148 11.6551 9.57772 11.9937 10.7126 12.5577C12.1134 13.2736 13.2143 14.4522 13.8226 15.8874C14.1099 16.5482 14.3195 17.2393 14.4475 17.9471C14.4716 18.0787 14.5005 18.2095 14.5343 18.3395C14.621 18.6649 14.7972 18.9604 15.0434 19.1933C15.1375 19.2885 15.2437 19.3741 15.345 19.4621C15.627 19.7044 15.8847 19.9728 16.1147 20.2636C16.6689 20.9092 16.9777 21.7249 16.9881 22.5706C16.9895 22.5912 16.9861 22.6118 16.9783 22.6309C16.9704 22.65 16.9582 22.6671 16.9426 22.6809C16.927 22.6947 16.9084 22.7047 16.8883 22.7103C16.8682 22.716 16.847 22.717 16.8264 22.7133C15.9957 22.6025 15.2206 22.2392 14.6091 21.674C14.292 21.3994 14.0194 21.0785 13.8008 20.7226C13.6487 20.4511 13.4418 20.2131 13.1928 20.0233C12.9438 19.8335 12.6581 19.6959 12.3532 19.6191C11.9791 19.5076 11.6157 19.3635 11.2675 19.1886C10.427 18.8009 9.67251 18.2535 9.0473 17.5776C8.42209 16.9017 7.93848 16.1107 7.62426 15.25C7.37235 14.5747 7.1952 13.8746 7.09587 13.1618C7.03313 12.7146 6.99448 12.2645 6.98006 11.8133C6.97333 11.7669 6.97841 11.7195 6.99483 11.6755C7.01126 11.6315 7.03851 11.5922 7.07416 11.5612Z" fill="#F39200"/>
<g opacity="0.5">
<path d="M0.0506592 21.3196C0.0989325 21.275 0.153355 21.2374 0.212312 21.2078C0.646618 21.0656 1.09096 20.9551 1.54173 20.8772C2.19422 20.7684 2.85728 20.7341 3.51775 20.775C4.23119 20.8095 4.93246 20.9707 5.58787 21.2506C6.40144 21.5974 7.11396 22.1395 7.66041 22.8275C8.13479 23.4183 8.50061 24.0864 8.74131 24.8015C8.83541 25.0703 8.93192 25.339 9.0429 25.6006C9.21907 26.0725 9.49359 26.5027 9.84876 26.8635C9.86672 26.8899 9.87828 26.92 9.88253 26.9515C9.8946 26.9825 9.83187 27.0324 9.77396 27.0348C9.70667 27.0423 9.63901 27.0463 9.57129 27.0467C9.31639 27.0396 9.06412 26.9939 8.82335 26.9111C8.66652 26.8517 8.50487 26.797 8.3408 26.728C8.00568 26.5624 7.63135 26.4892 7.25748 26.5163C7.18998 26.5199 7.12232 26.5199 7.05481 26.5163C5.81113 26.5243 4.59088 26.1828 3.53705 25.5317C2.84045 25.1132 2.21647 24.5872 1.6889 23.9738C1.05528 23.2302 0.525406 22.4063 0.11339 21.5241C0.087607 21.4575 0.0666442 21.3892 0.0506592 21.3196Z" fill="white"/>
</g>
<path d="M53.0246 20.7559C53.9262 20.7575 54.8219 20.8995 55.6786 21.1769C55.7411 21.1996 55.8024 21.2258 55.8619 21.2554C55.8821 21.2703 55.8979 21.2904 55.9077 21.3134C55.9174 21.3363 55.9208 21.3615 55.9174 21.3862C55.9054 21.4339 55.8901 21.4808 55.8716 21.5265C55.4546 22.4256 54.9112 23.2622 54.2575 24.0119C53.4639 24.9356 52.4476 25.6479 51.3019 26.0834C50.558 26.3702 49.765 26.5131 48.9663 26.5044C48.865 26.5044 48.7637 26.5044 48.6623 26.5044C48.3221 26.4877 47.983 26.5547 47.6755 26.6994C47.4591 26.7931 47.2367 26.8725 47.0096 26.9373C46.7366 27.0325 46.4431 27.0562 46.1579 27.0062C46.1352 26.9977 46.1169 26.9806 46.1069 26.9588C46.097 26.9369 46.0962 26.9121 46.1048 26.8897C46.1137 26.8757 46.1234 26.8622 46.1338 26.8493C46.488 26.4876 46.7623 26.0576 46.9397 25.5864C47.0555 25.3081 47.1544 25.0227 47.2557 24.7397C47.4911 24.058 47.8401 23.4198 48.2884 22.8512C49.1187 21.7966 50.3194 21.0864 51.6541 20.8606C52.1067 20.7845 52.5655 20.7494 53.0246 20.7559Z" fill="#F39200"/>
<path d="M29.6307 3.07521C29.6293 3.26261 29.5904 3.4479 29.5164 3.6205C29.4423 3.79309 29.3345 3.94961 29.1991 4.08113C29.0636 4.21265 28.9032 4.31658 28.727 4.387C28.5509 4.45741 28.3623 4.49293 28.1722 4.49153C27.9821 4.49012 27.7942 4.45182 27.6191 4.37881C27.444 4.3058 27.2852 4.1995 27.1518 4.066C27.0184 3.93249 26.9129 3.77439 26.8415 3.60072C26.7701 3.42705 26.734 3.24121 26.7355 3.05381C26.7369 2.86641 26.7757 2.68113 26.8498 2.50853C26.9239 2.33593 27.0317 2.17941 27.1671 2.04789C27.3026 1.91637 27.463 1.81244 27.6391 1.74202C27.8153 1.67161 28.0038 1.63609 28.194 1.6375C28.3841 1.6389 28.572 1.67721 28.7471 1.75022C28.9222 1.82323 29.081 1.92953 29.2144 2.06303C29.3478 2.19654 29.4533 2.35464 29.5247 2.52831C29.5961 2.70198 29.6322 2.88781 29.6307 3.07521Z" fill="#F39200"/>
<path d="M13.866 27.401C13.5798 27.3944 13.302 27.3042 13.0678 27.142C12.8336 26.9797 12.6534 26.7526 12.5501 26.4894C12.4468 26.2263 12.4249 25.9388 12.4873 25.6634C12.5497 25.3879 12.6936 25.137 12.9007 24.9421C13.1078 24.7473 13.3688 24.6173 13.6508 24.5687C13.9328 24.5201 14.2231 24.5551 14.485 24.6691C14.7469 24.7831 14.9686 24.9711 15.1221 25.2093C15.2756 25.4475 15.354 25.7252 15.3474 26.0073C15.343 26.1947 15.3012 26.3795 15.2244 26.551C15.1476 26.7224 15.0372 26.8773 14.8996 27.0067C14.7621 27.1362 14.6 27.2376 14.4226 27.3053C14.2453 27.3729 14.0561 27.4055 13.866 27.401Z" fill="#F39200"/>
<path d="M36.2609 17.4453C36.547 17.4415 36.8278 17.5215 37.0678 17.6749C37.3078 17.8284 37.4963 18.0485 37.6095 18.3075C37.7227 18.5665 37.7555 18.8528 37.7038 19.1302C37.6521 19.4076 37.5181 19.6636 37.3189 19.866C37.1196 20.0684 36.864 20.208 36.5843 20.2673C36.3046 20.3266 36.0134 20.3028 35.7473 20.199C35.4813 20.0953 35.2525 19.9161 35.0896 19.6842C34.9268 19.4523 34.8374 19.178 34.8326 18.8961C34.8294 18.7083 34.8639 18.5217 34.934 18.347C35.0041 18.1724 35.1085 18.0131 35.2412 17.8783C35.3739 17.7435 35.5323 17.6359 35.7073 17.5616C35.8823 17.4873 36.0704 17.4477 36.2609 17.4453Z" fill="#F39200"/>
<path d="M18.619 18.8723C18.6229 18.4938 18.7791 18.1323 19.0533 17.8674C19.3275 17.6024 19.6972 17.4557 20.0811 17.4595C20.4651 17.4633 20.8318 17.6173 21.1005 17.8876C21.3693 18.1579 21.5181 18.5223 21.5143 18.9008C21.5105 19.2793 21.3543 19.6407 21.0801 19.9057C20.8059 20.1706 20.4361 20.3173 20.0522 20.3135C19.6683 20.3098 19.3016 20.1558 19.0328 19.8855C18.764 19.6152 18.6152 19.2507 18.619 18.8723Z" fill="#F39200"/>
<path d="M42.4689 27.401C42.1826 27.401 41.9027 27.3174 41.6646 27.1606C41.4266 27.0038 41.241 26.7809 41.1314 26.5201C41.0219 26.2594 40.9932 25.9725 41.0491 25.6956C41.1049 25.4188 41.2428 25.1646 41.4452 24.965C41.6477 24.7654 41.9056 24.6295 42.1865 24.5744C42.4673 24.5194 42.7583 24.5476 43.0229 24.6556C43.2874 24.7637 43.5135 24.9466 43.6725 25.1812C43.8316 25.4159 43.9165 25.6918 43.9165 25.974C43.9115 26.351 43.7574 26.7111 43.487 26.9776C43.2166 27.2442 42.8513 27.3961 42.4689 27.401Z" fill="#F39200"/>
<path d="M73.1708 19.9663C73.6481 20.5525 73.9278 21.2708 73.971 22.0212C74.0143 22.7716 73.8189 23.5165 73.4121 24.1522C73.0098 24.7489 72.4432 25.22 71.7787 25.5103C70.9955 25.8559 70.1442 26.0257 69.2863 26.0073H63.5682V11.9203H69.0185C69.8812 11.8979 70.7382 12.0644 71.5278 12.4079C72.1707 12.6857 72.7198 13.1387 73.1105 13.7136C73.4653 14.2616 73.6506 14.8996 73.6437 15.5497C73.67 16.2797 73.438 16.9961 72.9875 17.5761C72.5235 18.1289 71.9104 18.5411 71.2189 18.7652C71.9996 18.9094 72.6966 19.3383 73.1708 19.9663ZM65.9134 17.8401H68.8086C69.5759 17.8401 70.175 17.6672 70.6061 17.3216C70.8248 17.1407 70.9974 16.9118 71.1102 16.6532C71.2229 16.3946 71.2725 16.1136 71.2551 15.8327C71.2695 15.5522 71.2185 15.2721 71.106 15.014C70.9935 14.7559 70.8225 14.5267 70.6061 14.3439C70.175 13.9855 69.5759 13.8064 68.8086 13.8064H65.9134V17.8401ZM70.9511 23.5481C71.1786 23.352 71.3578 23.1075 71.4752 22.8331C71.5927 22.5587 71.6453 22.2615 71.6291 21.9641C71.6425 21.6544 71.5843 21.3457 71.4589 21.0614C71.3335 20.7771 71.1442 20.5246 70.9053 20.3231C70.3645 19.8963 69.6838 19.6797 68.992 19.7142H65.9134V24.1142H69.0789C69.8751 24.1237 70.4975 23.9334 70.9511 23.5553V23.5481Z" fill="white"/>
<path d="M79.3716 15.1335C79.9927 14.8037 80.6906 14.6397 81.3959 14.6578V17.0481H80.7975C79.8774 17.0481 79.1818 17.278 78.7105 17.7378C78.2392 18.1976 78.0028 18.9951 78.0011 20.1304V26.0073H75.6584V14.8291H78.0036V16.4511C78.3344 15.9012 78.8062 15.4468 79.3716 15.1335Z" fill="white"/>
<path d="M82.8145 12.9264C82.6015 12.7194 82.4561 12.4545 82.3969 12.1655C82.3377 11.8765 82.3674 11.5767 82.4823 11.3045C82.5971 11.0323 82.7919 10.8002 83.0415 10.6378C83.2912 10.4755 83.5843 10.3904 83.8834 10.3934C84.0784 10.391 84.2719 10.4275 84.4522 10.5007C84.6326 10.5738 84.7961 10.6822 84.9329 10.8191C85.2098 11.102 85.3645 11.4797 85.3645 11.8728C85.3645 12.2658 85.2098 12.6435 84.9329 12.9264C84.7968 13.0643 84.6334 13.1732 84.4529 13.2464C84.2724 13.3196 84.0786 13.3556 83.8834 13.3521C83.6851 13.3571 83.488 13.3219 83.3041 13.2486C83.1203 13.1754 82.9536 13.0657 82.8145 12.9264ZM85.0343 14.8291V26.0073H82.6915V14.8291H85.0343Z" fill="white"/>
<path d="M94.1544 15.1739C94.7793 15.4751 95.3245 15.9157 95.7468 16.4606V14.8291H98.1112V26.181C98.1267 27.1395 97.8977 28.0865 97.4453 28.9351C97.0115 29.738 96.3501 30.3991 95.5417 30.8378C94.6289 31.3172 93.6055 31.5548 92.5716 31.5275C91.0355 31.5275 89.7608 31.1731 88.7474 30.4644C88.2611 30.1381 87.854 29.7098 87.5554 29.2102C87.2567 28.7107 87.0738 28.1521 87.0199 27.5747H89.3434C89.531 28.1686 89.9384 28.6711 90.4846 28.9827C91.1143 29.3537 91.8382 29.5401 92.5716 29.5202C92.9922 29.5382 93.4121 29.472 93.806 29.3257C94.2 29.1793 94.5598 28.9559 94.8637 28.6687C95.446 28.1027 95.7371 27.279 95.7371 26.1976V24.333C95.2742 24.923 94.6782 25.3987 93.9964 25.7224C93.3147 26.046 92.5658 26.2087 91.8092 26.1976C90.8558 26.2066 89.9191 25.9502 89.1069 25.4579C88.2841 24.9547 87.6166 24.2391 87.1767 23.3888C86.6927 22.4587 86.449 21.4253 86.4674 20.3801C86.4468 19.3439 86.6907 18.3191 87.1767 17.4001C87.6178 16.5668 88.2843 15.8701 89.1024 15.3874C89.9205 14.9046 90.8582 14.6545 91.8116 14.665C92.6227 14.6459 93.4265 14.8205 94.1544 15.1739ZM95.2739 18.3966C94.9799 17.8592 94.5428 17.411 94.0096 17.1004C93.4975 16.8048 92.9141 16.6504 92.3207 16.6533C91.7285 16.6507 91.1461 16.8016 90.6318 17.0909C90.0984 17.3928 89.6607 17.835 89.3675 18.3681C89.0329 18.9804 88.8666 19.6683 88.8849 20.3635C88.8694 21.0683 89.0354 21.7655 89.3675 22.3899C89.66 22.9395 90.1008 23.3988 90.6414 23.717C91.1519 24.0175 91.7357 24.1754 92.3303 24.1736C92.9236 24.1772 93.5069 24.0236 94.0192 23.7289C94.5484 23.4194 94.9821 22.9738 95.2739 22.4398C95.6065 21.8191 95.7726 21.1248 95.7564 20.423C95.7768 19.7177 95.6105 19.0193 95.2739 18.3966Z" fill="white"/>
<path d="M108.505 15.2048C109.192 15.5763 109.75 16.141 110.11 16.8269C110.521 17.6294 110.723 18.5205 110.696 19.4193V26.0073H108.373V19.7641C108.373 18.7652 108.118 17.9986 107.61 17.4643C107.342 17.1933 107.018 16.9817 106.66 16.8435C106.302 16.7053 105.919 16.6437 105.535 16.6628C105.15 16.6441 104.765 16.7059 104.405 16.844C104.045 16.9821 103.719 17.1935 103.448 17.4643C102.935 18.0002 102.678 18.7668 102.676 19.7641V26.0073H100.341V11.0094H102.686V16.1372C103.093 15.6581 103.611 15.2828 104.196 15.0431C104.831 14.7818 105.513 14.6507 106.201 14.6578C107.004 14.6447 107.797 14.8329 108.505 15.2048Z" fill="white"/>
<path d="M115.541 16.7317V22.9155C115.525 23.0777 115.543 23.2415 115.594 23.3966C115.645 23.5516 115.728 23.6947 115.838 23.8169C116.035 24 116.376 24.0904 116.856 24.0904H118.303V26.0073H116.453C115.396 26.0073 114.587 25.7639 114.026 25.2772C113.464 24.7904 113.184 23.9976 113.184 22.8988V16.7317H111.847V14.8291H113.184V12.063H115.541V14.8291H118.296V16.7317H115.541Z" fill="white"/>
<path d="M134.505 14.9408L130.982 26.0073H129.535L126.429 16.7317L123.324 26.0073H121.865L118.364 14.9408H119.811L122.62 24.5803L125.756 14.9527H127.204L130.309 24.5803L133.086 14.9313L134.505 14.9408Z" fill="white"/>
<path d="M137.661 25.4698C136.82 25.0055 136.128 24.3173 135.665 23.4839C135.165 22.5592 134.916 21.5228 134.942 20.4753C134.917 19.425 135.172 18.3866 135.682 17.4643C136.151 16.6288 136.849 15.9405 137.697 15.4784C138.572 15.0059 139.556 14.765 140.554 14.7791C141.555 14.7655 142.543 15.0063 143.422 15.4784C144.273 15.9367 144.972 16.626 145.437 17.4643C145.921 18.3943 146.173 19.4243 146.173 20.4693C146.173 21.5144 145.921 22.5444 145.437 23.4744C144.965 24.3169 144.258 25.0091 143.401 25.4698C142.517 25.941 141.526 26.1817 140.522 26.1691C139.523 26.1865 138.536 25.9454 137.661 25.4698ZM142.563 24.4376C143.209 24.0913 143.74 23.5706 144.095 22.9369C144.508 22.1817 144.71 21.3324 144.682 20.4753C144.711 19.6187 144.513 18.7695 144.108 18.0113C143.757 17.3774 143.228 16.8564 142.585 16.5106C141.95 16.1855 141.244 16.0159 140.528 16.0159C139.812 16.0159 139.107 16.1855 138.471 16.5106C137.83 16.8544 137.305 17.3762 136.961 18.0113C136.589 18.7806 136.396 19.622 136.396 20.4741C136.396 21.3262 136.589 22.1676 136.961 22.9369C137.303 23.5699 137.825 24.0913 138.462 24.4376C139.091 24.769 139.794 24.9391 140.508 24.9323C141.224 24.9386 141.931 24.7686 142.563 24.4376Z" fill="white"/>
<path d="M149.997 25.4698C149.156 25.0055 148.465 24.3173 148.002 23.4839C147.502 22.5592 147.252 21.5228 147.278 20.4753C147.253 19.425 147.508 18.3866 148.019 17.4643C148.488 16.6293 149.186 15.9412 150.033 15.4784C150.908 15.0059 151.892 14.765 152.89 14.7791C153.891 14.7655 154.879 15.0063 155.759 15.4784C156.609 15.9367 157.308 16.626 157.773 17.4643C158.275 18.3894 158.524 19.4268 158.497 20.4753C158.522 21.5209 158.269 22.5547 157.764 23.4744C157.292 24.3174 156.585 25.0098 155.727 25.4698C154.844 25.9413 153.853 26.182 152.849 26.1691C151.853 26.1849 150.87 25.9438 149.997 25.4698ZM154.902 24.4376C155.546 24.0909 156.077 23.5703 156.432 22.9369C156.844 22.1817 157.046 21.3324 157.018 20.4753C157.047 19.6187 156.849 18.7695 156.444 18.0113C156.094 17.3769 155.565 16.8558 154.921 16.5106C154.288 16.1871 153.584 16.0183 152.871 16.0183C152.157 16.0183 151.454 16.1871 150.82 16.5106C150.178 16.8542 149.652 17.376 149.307 18.0113C148.935 18.7806 148.742 19.622 148.742 20.4741C148.742 21.3262 148.935 22.1676 149.307 22.9369C149.65 23.5694 150.171 24.0906 150.808 24.4376C151.437 24.7688 152.14 24.9389 152.854 24.9323C153.568 24.9367 154.271 24.7668 154.902 24.4376Z" fill="white"/>
<path d="M160.309 17.4643C160.748 16.6351 161.418 15.9462 162.239 15.4783C163.08 15.0058 164.034 14.7644 165.002 14.7791C165.943 14.7676 166.869 15.0147 167.675 15.4926C168.43 15.9233 169.038 16.5658 169.422 17.3382V11.0094H170.87V26.0073H169.422V23.5338C169.067 24.322 168.478 24.9855 167.733 25.4365C166.907 25.9428 165.95 26.1999 164.978 26.1762C164.007 26.1901 163.052 25.9435 162.213 25.4627C161.394 24.987 160.731 24.2905 160.302 23.4554C159.826 22.5264 159.589 21.4966 159.612 20.4562C159.588 19.4173 159.828 18.3889 160.309 17.4643ZM168.862 18.1231C168.518 17.4732 167.994 16.9324 167.352 16.5629C166.711 16.1979 165.983 16.0098 165.243 16.0182C164.496 16.0068 163.759 16.188 163.105 16.5438C162.468 16.9006 161.95 17.4329 161.614 18.0755C161.235 18.8113 161.047 19.6287 161.069 20.4539C161.05 21.2787 161.238 22.0955 161.614 22.8322C161.947 23.4845 162.465 24.0274 163.105 24.3948C163.757 24.7569 164.495 24.9416 165.243 24.9299C165.983 24.9377 166.712 24.7487 167.352 24.3829C167.994 24.0134 168.518 23.4726 168.862 22.8227C169.227 22.0912 169.417 21.2869 169.417 20.4717C169.417 19.6565 169.227 18.8522 168.862 18.1207V18.1231Z" fill="white"/>
<path d="M92.9263 33.5705C93.0761 33.2883 93.302 33.0523 93.5792 32.8887C93.8563 32.725 94.174 32.64 94.497 32.6429C94.7714 32.6374 95.043 32.6978 95.2884 32.819C95.4982 32.9229 95.682 33.0716 95.8264 33.2542V32.7048H96.6299V36.4888H95.8264V35.9275C95.6808 36.116 95.4924 36.2683 95.2763 36.3722C95.0108 36.499 94.7175 36.5588 94.4228 36.5464C94.128 36.5339 93.841 36.4496 93.5874 36.3009C93.3092 36.1302 93.0839 35.8875 92.936 35.5993C92.7711 35.2841 92.6882 34.9335 92.6947 34.5789C92.6845 34.2289 92.7642 33.8821 92.9263 33.5705ZM95.6648 33.913C95.564 33.7318 95.4157 33.5807 95.2353 33.4754C95.0623 33.3743 94.8646 33.3217 94.6635 33.3232C94.4632 33.3226 94.2661 33.3734 94.0917 33.4706C93.9112 33.5729 93.7633 33.7228 93.6646 33.9035C93.5515 34.1108 93.4949 34.3436 93.5006 34.5789C93.4952 34.8181 93.5517 35.0546 93.6646 35.2663C93.7632 35.4529 93.9128 35.6086 94.0965 35.7158C94.2675 35.8177 94.4637 35.8711 94.6635 35.8704C94.8642 35.8715 95.0617 35.8198 95.2353 35.7205C95.4164 35.614 95.5648 35.4611 95.6648 35.2782C95.7769 35.0671 95.8325 34.8314 95.8264 34.5932C95.8328 34.3565 95.7771 34.1223 95.6648 33.913Z" fill="#F39200"/>
<path d="M99.3755 32.8047C99.5858 32.6931 99.822 32.6374 100.061 32.6429V33.454H99.8581C99.599 33.4375 99.3438 33.523 99.1487 33.6918C98.9644 33.921 98.8779 34.2118 98.9074 34.5028V36.4935H98.1136V32.7048H98.9074V33.2542C99.0197 33.0657 99.1814 32.9104 99.3755 32.8047Z" fill="#F39200"/>
<path d="M102.155 33.3446V35.4399C102.15 35.4948 102.156 35.5502 102.173 35.6026C102.191 35.6549 102.219 35.7032 102.256 35.7443C102.356 35.8164 102.479 35.8494 102.601 35.8371H103.084V36.4887H102.457C102.162 36.5115 101.869 36.4268 101.634 36.2509C101.531 36.1455 101.452 36.0193 101.402 35.8809C101.353 35.7426 101.335 35.5953 101.349 35.4494V33.3541H100.896V32.7143H101.349V31.763H102.15V32.7143H103.084V33.3541L102.155 33.3446Z" fill="#F39200"/>
<path d="M104.3 32.0603C104.206 31.9645 104.154 31.8366 104.154 31.7035C104.154 31.5704 104.206 31.4425 104.3 31.3468C104.347 31.3 104.404 31.2633 104.466 31.2388C104.528 31.2142 104.595 31.2024 104.662 31.204C104.728 31.2027 104.793 31.2147 104.854 31.2392C104.915 31.2638 104.97 31.3004 105.016 31.3468C105.11 31.4425 105.163 31.5704 105.163 31.7035C105.163 31.8366 105.11 31.9645 105.016 32.0603C104.97 32.1067 104.915 32.1432 104.854 32.1678C104.793 32.1923 104.728 32.2043 104.662 32.203C104.595 32.2046 104.528 32.1928 104.466 32.1682C104.404 32.1437 104.347 32.107 104.3 32.0603ZM105.053 32.7048V36.4888H104.259V32.7048H105.053Z" fill="#F39200"/>
<path d="M108.146 33.3446H107.436V36.4888H106.633V33.3446H106.182V32.7048H106.633V32.4289C106.617 32.2545 106.64 32.0789 106.701 31.9144C106.762 31.75 106.859 31.6008 106.985 31.4776C107.306 31.2523 107.698 31.1461 108.09 31.1779V31.8296C107.909 31.8119 107.728 31.8601 107.581 31.9651C107.525 32.0301 107.483 32.106 107.458 32.1879C107.433 32.2698 107.426 32.3559 107.436 32.4408V32.7072H108.146V33.3446Z" fill="#F39200"/>
<path d="M109.33 32.0603C109.237 31.9645 109.184 31.8366 109.184 31.7035C109.184 31.5704 109.237 31.4425 109.33 31.3468C109.378 31.3 109.434 31.2633 109.497 31.2388C109.559 31.2142 109.625 31.2024 109.692 31.204C109.758 31.2027 109.824 31.2147 109.885 31.2392C109.946 31.2638 110.001 31.3004 110.047 31.3468C110.141 31.4425 110.193 31.5704 110.193 31.7035C110.193 31.8366 110.141 31.9645 110.047 32.0603C110.001 32.1067 109.946 32.1432 109.885 32.1678C109.824 32.1923 109.758 32.2043 109.692 32.203C109.625 32.2046 109.559 32.1928 109.497 32.1682C109.434 32.1437 109.378 32.107 109.33 32.0603ZM110.083 32.7048V36.4888H109.289V32.7048H110.083Z" fill="#F39200"/>
<path d="M111.543 33.5681C111.693 33.281 111.924 33.043 112.209 32.8832C112.54 32.7119 112.911 32.6296 113.284 32.6447C113.658 32.6597 114.021 32.7715 114.337 32.9688C114.648 33.1978 114.867 33.5281 114.955 33.9011H114.093C114.032 33.7237 113.915 33.5698 113.76 33.4611C113.588 33.3506 113.386 33.295 113.181 33.3018C113.034 33.2962 112.887 33.324 112.753 33.3829C112.618 33.4419 112.499 33.5305 112.404 33.6419C112.216 33.9246 112.116 34.2552 112.116 34.5932C112.116 34.9312 112.216 35.2618 112.404 35.5445C112.499 35.6564 112.618 35.7454 112.752 35.8048C112.887 35.8641 113.034 35.8923 113.181 35.887C113.379 35.9036 113.577 35.8536 113.743 35.7452C113.908 35.6368 114.032 35.4764 114.093 35.2901H114.952C114.853 35.6558 114.632 35.9782 114.325 36.2057C113.993 36.4413 113.59 36.5609 113.181 36.5458C112.844 36.5522 112.511 36.4701 112.216 36.308C111.933 36.1456 111.702 35.9073 111.55 35.6206C111.391 35.3012 111.309 34.9501 111.309 34.5944C111.309 34.2386 111.391 33.8876 111.55 33.5681H111.543Z" fill="#F39200"/>
<path d="M116.228 32.0603C116.135 31.9645 116.082 31.8366 116.082 31.7035C116.082 31.5704 116.135 31.4425 116.228 31.3467C116.275 31.2995 116.332 31.2623 116.394 31.2378C116.456 31.2132 116.523 31.2017 116.59 31.204C116.656 31.2027 116.722 31.2147 116.783 31.2392C116.844 31.2638 116.899 31.3004 116.945 31.3467C117.039 31.4425 117.091 31.5704 117.091 31.7035C117.091 31.8366 117.039 31.9645 116.945 32.0603C116.899 32.1066 116.844 32.1432 116.783 32.1678C116.722 32.1923 116.656 32.2043 116.59 32.203C116.523 32.2053 116.456 32.1938 116.394 32.1692C116.332 32.1447 116.275 32.1075 116.228 32.0603ZM116.981 32.7048V36.4888H116.187V32.7048H116.981Z" fill="#F39200"/>
<path d="M118.436 33.5705C118.586 33.2883 118.812 33.0523 119.089 32.8887C119.366 32.725 119.684 32.64 120.007 32.6429C120.281 32.6374 120.553 32.6978 120.798 32.819C121.008 32.9236 121.193 33.0721 121.339 33.2542V32.7048H122.14V36.4888H121.339V35.9275C121.191 36.1155 121.002 36.2677 120.786 36.3722C120.521 36.499 120.227 36.5588 119.933 36.5464C119.638 36.5339 119.351 36.4496 119.097 36.3009C118.819 36.1302 118.594 35.8875 118.446 35.5993C118.281 35.2841 118.198 34.9335 118.204 34.5789C118.194 34.2289 118.274 33.8821 118.436 33.5705ZM121.175 33.913C121.074 33.7313 120.926 33.58 120.745 33.4754C120.572 33.3743 120.374 33.3217 120.173 33.3232C119.974 33.3226 119.777 33.3734 119.604 33.4706C119.422 33.5721 119.273 33.7222 119.174 33.9035C119.061 34.1108 119.005 34.3436 119.01 34.5789C119.005 34.8181 119.061 35.0546 119.174 35.2663C119.273 35.4529 119.423 35.6086 119.606 35.7158C119.777 35.8174 119.973 35.8709 120.173 35.8704C120.374 35.8715 120.571 35.8198 120.745 35.7205C120.927 35.6147 121.075 35.4616 121.175 35.2782C121.287 35.0673 121.344 34.8316 121.339 34.5932C121.346 34.3567 121.291 34.1225 121.179 33.913H121.175Z" fill="#F39200"/>
<path d="M124.422 31.4062V36.4888H123.628V31.4062H124.422Z" fill="#F39200"/>
<path d="M128.198 32.0603C128.126 31.9901 128.077 31.9003 128.057 31.8024C128.037 31.7046 128.047 31.6031 128.086 31.5109C128.125 31.4188 128.191 31.3401 128.275 31.285C128.359 31.2299 128.459 31.2009 128.56 31.2017C128.626 31.2 128.692 31.2118 128.754 31.2364C128.815 31.2609 128.871 31.2977 128.917 31.3444C129.009 31.441 129.06 31.5685 129.06 31.7011C129.06 31.8337 129.009 31.9613 128.917 32.0579C128.871 32.1046 128.815 32.1413 128.754 32.1659C128.692 32.1904 128.626 32.2022 128.56 32.2006C128.493 32.2022 128.427 32.1907 128.365 32.1666C128.302 32.1425 128.246 32.1063 128.198 32.0603ZM128.951 32.7048V36.4888H128.157V32.7048H128.951Z" fill="#F39200"/>
<path d="M133.183 32.8285C133.422 32.9512 133.618 33.1428 133.745 33.3779C133.887 33.6495 133.957 33.9523 133.948 34.2579V36.4888H133.154V34.3744C133.178 34.0935 133.091 33.8142 132.912 33.5943C132.72 33.4198 132.468 33.323 132.207 33.323C131.945 33.323 131.693 33.4198 131.501 33.5943C131.314 33.8106 131.219 34.0905 131.238 34.3744V36.4888H130.444V32.7048H131.224V33.1424C131.359 32.9842 131.53 32.8596 131.723 32.7785C131.926 32.6909 132.146 32.6463 132.367 32.6477C132.65 32.6409 132.93 32.7029 133.183 32.8285Z" fill="#F39200"/>
<path d="M136.322 33.3446V35.4399C136.316 35.4948 136.323 35.5502 136.34 35.6026C136.357 35.6549 136.386 35.7032 136.423 35.7443C136.523 35.8158 136.645 35.8488 136.768 35.8371H137.251V36.4887H136.626C136.331 36.5115 136.038 36.4268 135.803 36.2509C135.699 36.1457 135.62 36.0196 135.57 35.8812C135.521 35.7428 135.502 35.5955 135.516 35.4494V33.3541H135.065V32.7143H135.516V31.763H136.317V32.7143H137.255V33.3541L136.322 33.3446Z" fill="#F39200"/>
<path d="M141.917 34.8881H138.985C138.99 35.026 139.023 35.1615 139.081 35.2868C139.14 35.4122 139.223 35.5248 139.326 35.6183C139.531 35.8015 139.801 35.8994 140.078 35.8918C140.266 35.9042 140.452 35.8604 140.614 35.7661C140.775 35.6719 140.904 35.5316 140.983 35.3638H141.84C141.725 35.7068 141.504 36.0056 141.207 36.2176C140.878 36.4484 140.48 36.5655 140.076 36.5506C139.732 36.5574 139.391 36.4754 139.089 36.3128C138.801 36.1504 138.565 35.9124 138.406 35.6254C138.239 35.3087 138.156 34.9551 138.165 34.598C138.158 34.2418 138.241 33.8895 138.406 33.5729C138.559 33.2841 138.795 33.0459 139.084 32.8879C139.391 32.7249 139.735 32.6429 140.083 32.6501C140.42 32.6463 140.753 32.7282 141.048 32.8879C141.328 33.0404 141.558 33.268 141.712 33.5443C141.875 33.8431 141.958 34.1779 141.953 34.5171C141.951 34.6415 141.939 34.7656 141.917 34.8881ZM141.116 34.2578C141.119 34.1264 141.093 33.9959 141.038 33.8758C140.984 33.7557 140.903 33.649 140.802 33.5634C140.591 33.3866 140.321 33.2934 140.045 33.3018C139.785 33.2959 139.532 33.3887 139.34 33.561C139.14 33.7425 139.015 33.9909 138.99 34.2578H141.116Z" fill="#F39200"/>
<path d="M143.958 31.4062V36.4888H143.164V31.4062H143.958Z" fill="#F39200"/>
<path d="M146.238 31.4062V36.4888H145.444V31.4062H146.238Z" fill="#F39200"/>
<path d="M147.763 32.0603C147.691 31.9901 147.642 31.9003 147.622 31.8024C147.602 31.7046 147.612 31.6031 147.651 31.5109C147.69 31.4188 147.755 31.3401 147.84 31.285C147.924 31.2299 148.023 31.2009 148.125 31.2017C148.191 31.2 148.257 31.2118 148.318 31.2364C148.38 31.2609 148.435 31.2977 148.482 31.3444C148.574 31.441 148.625 31.5685 148.625 31.7011C148.625 31.8337 148.574 31.9613 148.482 32.0579C148.435 32.1046 148.38 32.1413 148.318 32.1659C148.257 32.1904 148.191 32.2022 148.125 32.2006C148.058 32.2022 147.992 32.1907 147.929 32.1666C147.867 32.1425 147.811 32.1063 147.763 32.0603ZM148.516 32.7048V36.4888H147.722V32.7048H148.516Z" fill="#F39200"/>
<path d="M152.337 32.819C152.549 32.921 152.734 33.07 152.878 33.2542V32.7048H153.679V36.5506C153.684 36.8747 153.608 37.1951 153.457 37.4829C153.308 37.7536 153.084 37.9764 152.81 38.1251C152.501 38.2888 152.155 38.3708 151.804 38.3629C151.344 38.3798 150.891 38.2533 150.509 38.0014C150.344 37.8911 150.206 37.7463 150.104 37.5773C150.003 37.4083 149.941 37.2193 149.922 37.0239H150.711C150.775 37.2244 150.913 37.3941 151.097 37.4996C151.311 37.6252 151.556 37.6887 151.804 37.6827C151.947 37.6889 152.089 37.6666 152.222 37.6171C152.356 37.5677 152.478 37.4921 152.581 37.3949C152.686 37.282 152.766 37.1494 152.817 37.0051C152.868 36.8608 152.889 36.7078 152.878 36.5553V35.9251C152.721 36.1251 152.519 36.2862 152.288 36.3956C152.056 36.505 151.802 36.5597 151.546 36.5553C151.223 36.5584 150.907 36.4718 150.632 36.3056C150.352 36.1352 150.125 35.8926 149.975 35.604C149.811 35.2885 149.729 34.9381 149.734 34.5837C149.728 34.233 149.811 33.8863 149.975 33.5753C150.126 33.2926 150.353 33.0565 150.632 32.8927C150.908 32.7315 151.225 32.6491 151.546 32.6548C151.819 32.6463 152.091 32.7026 152.337 32.819ZM152.714 33.913C152.614 33.7308 152.466 33.5794 152.284 33.4754C152.112 33.3746 151.915 33.322 151.715 33.3232C151.514 33.3223 151.317 33.3731 151.143 33.4706C150.962 33.5727 150.813 33.7226 150.714 33.9035C150.6 34.1108 150.544 34.3436 150.55 34.5789C150.544 34.8181 150.601 35.0546 150.714 35.2663C150.812 35.4529 150.962 35.6086 151.145 35.7158C151.317 35.8177 151.514 35.8712 151.715 35.8704C151.92 35.8713 152.122 35.8166 152.298 35.7122C152.475 35.6078 152.618 35.4576 152.714 35.2782C152.827 35.0673 152.883 34.8316 152.878 34.5932C152.883 34.3563 152.827 34.122 152.714 33.913Z" fill="#F39200"/>
<path d="M158.654 34.8881H155.72C155.731 35.1638 155.852 35.4242 156.056 35.6122C156.261 35.8003 156.533 35.9008 156.813 35.8918C157.001 35.9047 157.188 35.8611 157.35 35.7668C157.512 35.6725 157.641 35.532 157.72 35.3638H158.577C158.464 35.7071 158.244 36.0062 157.947 36.2176C157.616 36.4484 157.218 36.5655 156.813 36.5506C156.469 36.5577 156.13 36.4757 155.829 36.3128C155.54 36.1511 155.304 35.913 155.146 35.6254C154.977 35.3091 154.894 34.9552 154.905 34.598C154.897 34.2418 154.98 33.8895 155.146 33.5729C155.298 33.2844 155.533 33.0463 155.821 32.8879C156.128 32.7252 156.472 32.6432 156.82 32.6501C157.157 32.6467 157.49 32.7286 157.785 32.8879C158.064 33.0408 158.293 33.2684 158.446 33.5443C158.611 33.8427 158.694 34.1778 158.688 34.5171C158.686 34.6415 158.675 34.7655 158.654 34.8881ZM157.853 34.2579C157.856 34.1264 157.83 33.9959 157.775 33.8758C157.721 33.7557 157.64 33.649 157.539 33.5634C157.327 33.3869 157.057 33.2937 156.779 33.3018C156.519 33.2959 156.267 33.3887 156.075 33.561C155.875 33.7428 155.751 33.9911 155.727 34.2579H157.853Z" fill="#F39200"/>
<path d="M162.649 32.8285C162.888 32.9519 163.084 33.1433 163.212 33.3779C163.352 33.6501 163.421 33.9526 163.412 34.2579V36.4888H162.625V34.3744C162.644 34.0913 162.552 33.8118 162.367 33.5943C162.276 33.5025 162.167 33.4308 162.046 33.3841C161.925 33.3373 161.795 33.3166 161.665 33.3232C161.534 33.3167 161.403 33.3376 161.281 33.3843C161.159 33.431 161.048 33.5026 160.956 33.5943C160.769 33.8109 160.675 34.0908 160.695 34.3744V36.4888H159.901V32.7048H160.695V33.1424C160.83 32.9848 161 32.8602 161.192 32.7785C161.396 32.6906 161.616 32.646 161.839 32.6477C162.12 32.6416 162.398 32.7037 162.649 32.8285Z" fill="#F39200"/>
<path d="M164.838 33.5681C164.988 33.281 165.219 33.043 165.504 32.8832C165.835 32.7119 166.206 32.6296 166.579 32.6447C166.953 32.6597 167.316 32.7715 167.632 32.9688C167.943 33.1974 168.161 33.528 168.247 33.9011H167.39C167.329 33.7237 167.212 33.5698 167.057 33.4611C166.886 33.3506 166.683 33.295 166.478 33.3018C166.331 33.2962 166.185 33.324 166.05 33.3829C165.915 33.4419 165.796 33.5305 165.701 33.6419C165.514 33.9246 165.413 34.2552 165.413 34.5932C165.413 34.9312 165.514 35.2618 165.701 35.5445C165.796 35.6564 165.915 35.7454 166.05 35.8048C166.184 35.8641 166.331 35.8923 166.478 35.887C166.676 35.9036 166.874 35.8536 167.04 35.7452C167.205 35.6368 167.329 35.4764 167.39 35.2901H168.247C168.148 35.6562 167.927 35.9789 167.62 36.2057C167.288 36.4409 166.887 36.5606 166.478 36.5458C166.141 36.5522 165.808 36.4701 165.513 36.308C165.23 36.1456 164.999 35.9073 164.847 35.6206C164.689 35.3012 164.606 34.9501 164.606 34.5944C164.606 34.2386 164.689 33.8876 164.847 33.5681H164.838Z" fill="#F39200"/>
<path d="M172.964 34.8881H170.04C170.044 35.026 170.077 35.1615 170.135 35.2868C170.194 35.4122 170.277 35.5248 170.38 35.6183C170.586 35.8015 170.855 35.8994 171.133 35.8918C171.32 35.9042 171.507 35.8604 171.668 35.7661C171.83 35.6719 171.958 35.5316 172.037 35.3638H172.896C172.782 35.7068 172.561 36.0056 172.264 36.2176C171.934 36.4484 171.537 36.5655 171.133 36.5506C170.788 36.5574 170.448 36.4754 170.146 36.3128C169.858 36.1504 169.622 35.9124 169.463 35.6254C169.295 35.3087 169.212 34.9551 169.222 34.598C169.214 34.2418 169.297 33.8895 169.463 33.5729C169.616 33.2841 169.852 33.0459 170.141 32.8879C170.447 32.7249 170.792 32.6429 171.14 32.6501C171.477 32.6463 171.809 32.7282 172.105 32.8879C172.385 33.0404 172.615 33.268 172.768 33.5443C172.931 33.8431 173.014 34.1779 173.01 34.5171C173.004 34.6418 172.989 34.7658 172.964 34.8881ZM172.163 34.2578C172.166 34.1264 172.14 33.9959 172.085 33.8758C172.031 33.7557 171.95 33.649 171.849 33.5634C171.638 33.3866 171.368 33.2934 171.092 33.3018C170.832 33.2959 170.579 33.3887 170.387 33.561C170.187 33.7425 170.062 33.9909 170.037 34.2578H172.163Z" fill="#F39200"/>
</g>
<defs>
<clipPath id="clip0_20_148">
<rect width="173" height="48" fill="white"/>
</clipPath>
</defs>
</svg>
