<svg width="292" height="82" viewBox="0 0 292 82" fill="none" xmlns="http://www.w3.org/2000/svg">
<g clip-path="url(#clip0_20_1807)">
<path d="M16.8755 81.967C16.87 81.9398 16.87 81.9117 16.8755 81.8845C16.9678 81.821 17.067 81.7684 17.1712 81.7277C19.955 81.026 22.7306 80.3079 25.5227 79.6228C27.5346 79.1192 29.5548 78.6487 31.5749 78.17L32.6507 77.9058L32.9791 77.8233C34.1246 77.5176 35.1757 76.9284 36.0364 76.1094C36.8971 75.2904 37.5399 74.2677 37.9063 73.1347C38.1978 72.2984 38.4096 71.436 38.5386 70.5593C38.8492 68.4643 38.9427 66.3426 38.8178 64.2281C38.7686 63.3449 38.7275 62.4617 38.7111 61.5785C38.7009 61.0332 38.569 60.4972 38.3251 60.0101C37.8215 58.9673 37.0137 58.1035 36.0093 57.5338C35.5119 57.237 34.9454 57.0775 34.3669 57.0715L28.9142 56.9064C28.093 56.9064 27.2062 56.8239 26.3521 56.7991L24.1349 56.7496C22.57 56.7261 21.0151 56.493 19.5116 56.0562C18.7721 55.8357 18.0502 55.5598 17.3518 55.2308C17.2672 55.1764 17.1689 55.1474 17.0685 55.1474C16.9681 55.1474 16.8698 55.1764 16.7852 55.2308L16.2843 55.5444C14.425 56.7157 12.3936 57.5848 10.2649 58.1198C9.02663 58.442 7.74971 58.5892 6.471 58.5573C4.23431 58.4952 2.07953 57.6978 0.336685 56.2873L0.0821172 56.0562C0.0388407 56.0048 0.000369251 55.9496 -0.0328369 55.8911C0.00700038 55.7917 0.0536325 55.6952 0.106752 55.6022C1.30388 53.8537 2.83672 52.3635 4.61512 51.2191C5.68977 50.5161 6.88396 50.0181 8.13802 49.7498C9.13807 49.53 10.1669 49.4743 11.1847 49.5847C12.6227 49.7715 14.0144 50.2219 15.2906 50.9137C15.8167 51.1987 16.3266 51.5129 16.818 51.8547C17.1688 52.0986 17.5573 52.2827 17.9677 52.3995C19.9051 52.981 21.9159 53.2785 23.9378 53.2827L28.865 53.2414H29.2099C29.2663 53.239 29.3213 53.2227 29.3699 53.1939C29.4186 53.1651 29.4595 53.1247 29.4891 53.0763C29.5164 53.0271 29.5307 52.9717 29.5307 52.9154C29.5307 52.859 29.5164 52.8036 29.4891 52.7544C29.4359 52.6873 29.3783 52.6238 29.3166 52.5646L26.0318 49.2215C25.9813 49.1536 25.9169 49.0973 25.843 49.0564C25.7633 49.0281 25.6763 49.0281 25.5966 49.0564C25.4077 49.1142 25.2353 49.205 25.0464 49.271C23.9338 49.677 22.717 49.6903 21.5958 49.309C20.4747 48.9277 19.5159 48.1743 18.8772 47.1726C18.2384 46.171 17.9577 44.9808 18.0811 43.7975C18.2045 42.6143 18.7247 41.5084 19.5561 40.6617C20.3876 39.815 21.481 39.2778 22.6564 39.1385C23.8319 38.9991 25.0195 39.2658 26.0242 39.8948C27.0288 40.5238 27.7907 41.4777 28.1846 42.5996C28.5785 43.7215 28.581 44.9448 28.1916 46.0683C28.1496 46.2068 28.0974 46.342 28.0356 46.4728C27.9708 46.5849 27.95 46.7174 27.9773 46.8441C28.0047 46.9709 28.0782 47.0828 28.1834 47.1579C28.3074 47.2755 28.4253 47.3995 28.5365 47.5293C29.9161 48.9739 31.2875 50.4266 32.6425 51.8712L32.8231 52.061C33.3479 52.6315 34.0474 53.0092 34.8104 53.1341C35.9294 53.3417 37.0169 53.6941 38.0459 54.1824C38.8494 54.5492 39.6029 55.018 40.2878 55.5775C40.8465 56.0248 41.3388 56.5501 41.7495 57.1375C42.401 58.0809 42.7687 59.1927 42.8088 60.3403C42.8827 62.2553 42.9977 64.1704 43.088 66.1184C43.1866 68.1738 43.2687 70.2457 43.3508 72.2928C43.423 73.7667 42.9224 75.2111 41.9548 76.321C41.5994 76.7319 41.1906 77.0928 40.7394 77.3941L38.4155 78.9954C38.3282 79.0638 38.2484 79.1413 38.1773 79.2265C38.1773 79.2265 38.1773 79.2843 38.1773 79.3091C38.1888 79.3321 38.2057 79.352 38.2266 79.3669H38.3087C39.2474 79.364 40.1784 79.1964 41.0597 78.8716C42.3019 78.4137 43.349 77.539 44.0242 76.3952C44.4066 75.7568 44.6423 75.0404 44.714 74.2986C44.714 73.8694 44.7797 73.4732 44.7797 73.0109C44.7797 70.1796 44.829 67.3483 44.8536 64.5253C44.8536 62.9239 44.8536 61.3226 44.8536 59.7212C44.8498 57.7072 44.2588 55.7386 43.1537 54.0586C42.7484 53.4345 42.2806 52.8536 41.7577 52.3252C40.2713 50.7898 38.7932 49.2463 37.3068 47.7027C36.1161 46.4728 34.9336 45.2263 33.7511 44.0047L33.5704 43.8148C33.2463 43.4914 32.9912 43.105 32.8203 42.6793C32.6495 42.2536 32.5666 41.7974 32.5768 41.3385C32.5768 40.3397 32.5768 39.3409 32.5768 38.3421C32.5768 38.0532 32.5768 37.7725 32.5768 37.5166C32.4041 37.3539 32.1865 37.2475 31.9526 37.2112C31.0845 36.9223 30.31 36.4033 29.7108 35.7089C29.0066 34.9057 28.5644 33.9047 28.4439 32.841C28.3234 31.7772 28.5304 30.7019 29.0369 29.7601C29.5434 28.8183 30.3251 28.0553 31.2765 27.5741C32.2279 27.0928 33.3033 26.9164 34.3576 27.0688C35.4118 27.2211 36.3943 27.6948 37.1723 28.4259C37.9504 29.157 38.4866 30.1104 38.7088 31.1575C38.9309 32.2046 38.8282 33.2949 38.4145 34.2815C38.0008 35.2681 37.296 36.1033 36.3953 36.6747C36.1572 36.8315 35.9026 36.9636 35.648 37.1122C35.6402 37.2551 35.6402 37.3984 35.648 37.5414C35.648 38.2595 35.648 38.9694 35.7137 39.6876C35.7137 39.9682 35.763 40.2571 35.7958 40.513C35.874 41.1133 36.1383 41.6737 36.5513 42.1144C36.7074 42.2795 36.8716 42.4363 37.0358 42.5932C38.284 43.8478 39.5405 45.0695 40.7805 46.3489C42.2029 47.7512 43.5385 49.2398 44.7797 50.8064C44.7797 50.8064 44.9193 50.8064 45.0261 50.8064V34.091C45.0423 33.6622 45.0092 33.2328 44.9275 32.8116C44.8275 32.3357 44.6195 31.8893 44.3198 31.5074C44.1638 31.301 43.9831 31.1194 43.8107 30.9296L38.0623 24.5984C37.9063 24.4333 37.7503 24.2599 37.586 24.1031C37.173 23.7124 36.6712 23.429 36.1243 23.2777L35.6316 23.1373C33.8542 22.7661 32.1955 21.9593 30.803 20.7885C29.4105 19.6178 28.3272 18.1194 27.6496 16.4265C27.1671 15.2654 26.8199 14.0522 26.6149 12.811C26.4753 11.9855 26.4424 11.2179 26.3439 10.4254C26.3439 10.2273 26.3439 10.0292 26.3439 9.82287C26.3469 9.76662 26.3688 9.71306 26.4061 9.67104C26.4435 9.62902 26.4939 9.60105 26.5492 9.59174C26.6913 9.57932 26.8341 9.57932 26.9762 9.59174C28.9188 9.85048 30.8104 10.4073 32.585 11.2426C33.6368 11.7517 34.6171 12.3984 35.5002 13.1659C37.3184 14.7299 38.4898 16.9202 38.785 19.3073C38.8859 20.1354 39.2553 20.907 39.8361 21.503C41.4292 23.1539 43.0059 24.8047 44.5826 26.4556C44.6615 26.5365 44.7466 26.6111 44.8372 26.6785C44.8782 26.6785 44.9439 26.6785 44.9932 26.6785C45.0054 26.6736 45.0163 26.6657 45.0248 26.6557C45.0334 26.6456 45.0395 26.6336 45.0425 26.6207C45.0425 26.5299 45.0425 26.4474 45.0425 26.3648C45.0425 22.1055 45.0425 17.8462 45.0425 13.5787C45.0547 11.821 44.4759 10.1107 43.4001 8.72502C43.3097 8.60946 43.2194 8.50215 43.1373 8.38659C42.6179 7.70225 42.2738 6.90003 42.1355 6.05057C41.9744 5.32213 41.9705 4.56748 42.1239 3.83739C42.2773 3.1073 42.5845 2.41871 43.0249 1.81795C43.4652 1.21719 44.0284 0.718202 44.6767 0.354562C45.3249 -0.00907782 46.0431 -0.228933 46.783 -0.290212C47.5228 -0.351491 48.2672 -0.252772 48.9659 -0.000695646C49.6646 0.25138 50.3015 0.650963 50.8337 1.17117C51.3659 1.69137 51.7811 2.32013 52.0514 3.01513C52.3216 3.71013 52.4406 4.45526 52.4004 5.20036C52.4179 6.35499 52.0508 7.48236 51.3574 8.4031L51.0372 8.80757C50.0068 10.1545 49.4469 11.8053 49.4441 13.5044V43.5259C49.4441 43.7818 49.4441 44.0459 49.4441 44.3018C49.4509 44.3753 49.4675 44.4474 49.4933 44.5164C49.5755 44.566 49.6165 44.5164 49.6576 44.5164C51.6449 42.0401 53.8867 39.8031 56.0957 37.5332L57.2947 36.3115C57.2705 36.227 57.2346 36.1465 57.1879 36.0721C57.0401 35.8905 56.8759 35.7337 56.7363 35.5521C56.0228 34.661 55.6194 33.5595 55.5878 32.416C55.5562 31.2726 55.8981 30.1503 56.5614 29.2207C57.2246 28.2912 58.1725 27.6057 59.2601 27.2691C60.3477 26.9325 61.515 26.9634 62.5835 27.357C63.652 27.7505 64.5628 28.4852 65.1765 29.4484C65.7902 30.4117 66.073 31.5505 65.9817 32.6907C65.8904 33.8309 65.4299 34.9096 64.6708 35.7618C63.9117 36.6139 62.8958 37.1927 61.7784 37.4093L61.2036 37.5414C60.8722 37.6312 60.5676 37.8013 60.3167 38.0367C60.1689 38.177 60.0292 38.3173 59.8979 38.4659L52.5892 46.0435C51.3033 47.3507 50.373 48.9679 49.8875 50.7403C49.6201 51.7329 49.4902 52.7579 49.5016 53.7862C49.5016 55.8746 49.5426 57.963 49.5508 60.0514C49.5837 64.4868 49.6083 68.9194 49.6247 73.3493C49.6233 73.8339 49.6673 74.3176 49.7561 74.7939C50.0164 76.068 50.7249 77.2051 51.7516 77.9966C52.6507 78.7069 53.728 79.1526 54.864 79.2843C55.3098 79.3734 55.7656 79.4012 56.2189 79.3669C56.2189 79.3669 56.2189 79.3669 56.26 79.3091C56.2665 79.2963 56.2698 79.2822 56.2698 79.2678C56.2698 79.2535 56.2665 79.2393 56.26 79.2265C56.2114 79.1604 56.1533 79.102 56.0875 79.0532L53.8046 77.4023C53.6145 77.2741 53.4308 77.1363 53.2544 76.9896C52.5321 76.4236 51.9548 75.6923 51.5705 74.8567C51.1863 74.021 51.0062 73.1052 51.0454 72.1855C51.0864 70.4768 51.1932 68.7598 51.2753 67.0512C51.2753 66.8778 51.2753 66.7045 51.2753 66.5312C51.3574 64.5336 51.4396 62.536 51.5053 60.5384C51.5137 59.9377 51.6021 59.3408 51.768 58.7637C52.035 57.8839 52.5016 57.0786 53.1312 56.4111C53.7618 55.7554 54.4872 55.1988 55.2827 54.7603C56.3499 54.1627 57.49 53.7077 58.6743 53.4065C58.9781 53.324 59.282 53.2662 59.594 53.2084C60.3292 53.0839 61.0039 52.7216 61.5156 52.1766C63.1087 50.5257 64.7019 48.8335 66.2868 47.1496C66.3655 47.0642 66.4344 46.97 66.4921 46.869C66.4017 46.6461 66.3114 46.4397 66.2375 46.2251C65.8666 45.2233 65.8102 44.1312 66.0761 43.0963C66.342 42.0613 66.9173 41.1331 67.7244 40.4371C68.5315 39.7411 69.5316 39.3106 70.5897 39.2037C71.6478 39.0969 72.713 39.3188 73.6417 39.8396C74.5704 40.3604 75.3178 41.155 75.7832 42.1161C76.2486 43.0773 76.4095 44.1588 76.2442 45.2147C76.0789 46.2707 75.5954 47.2503 74.8589 48.0214C74.1224 48.7925 73.1684 49.3179 72.1254 49.5269C71.1989 49.725 70.2353 49.6505 69.3498 49.3123C69.1691 49.2463 68.9885 49.1555 68.7996 49.0977C68.7179 49.0821 68.6333 49.0968 68.5615 49.139C68.4671 49.2048 68.3816 49.2824 68.3069 49.3701L65.1124 52.5976L64.9975 52.7131C64.8168 52.9113 64.7757 53.0433 64.8579 53.1671C64.9006 53.2238 64.9569 53.2686 65.0215 53.2975C65.0861 53.3264 65.157 53.3383 65.2274 53.3322H66.0486H70.4831C72.5032 53.3163 74.5107 53.0105 76.4449 52.4242C76.8263 52.3123 77.1849 52.1335 77.5042 51.896C78.5545 51.1553 79.7013 50.5636 80.9122 50.1377C81.9075 49.7956 82.9484 49.6063 83.9999 49.5764C85.3405 49.5523 86.6716 49.8081 87.9088 50.3276C88.9865 50.7821 89.9976 51.3819 90.9144 52.1106C92.1173 53.0748 93.1837 54.1996 94.0841 55.4536C94.1705 55.565 94.2422 55.6871 94.2977 55.8168C94.3259 55.8941 94.3259 55.979 94.2977 56.0562C94.2538 56.1308 94.1951 56.1954 94.1252 56.2461C92.6957 57.4366 90.9688 58.2104 89.1323 58.483C87.4647 58.7113 85.7687 58.6103 84.1395 58.1859C81.9839 57.6499 79.9271 56.7722 78.0462 55.5857C77.8574 55.4619 77.6685 55.3381 77.4714 55.2225C77.4186 55.1981 77.3612 55.1854 77.3031 55.1854C77.2449 55.1854 77.1875 55.1981 77.1347 55.2225L76.6666 55.4124C75.1686 56.0377 73.5899 56.4463 71.9776 56.6258C71.3535 56.7001 70.7294 56.7331 70.1053 56.7496L66.6974 56.8652H65.326L59.9553 57.0302C59.4431 57.0394 58.941 57.1755 58.4936 57.4265C57.4125 58.0118 56.5485 58.9325 56.03 60.0514C55.865 60.3842 55.7647 60.7456 55.7344 61.1162C55.7344 61.4546 55.6687 61.8013 55.6605 62.1398C55.6195 63.4275 55.5538 64.7152 55.5538 65.9946C55.5275 67.6848 55.6622 69.3737 55.9561 71.0381C56.116 71.9929 56.3918 72.9243 56.7773 73.8116C57.1427 74.6528 57.6727 75.4114 58.3358 76.0425C58.9988 76.6735 59.7814 77.1641 60.6369 77.4848C61.1137 77.6685 61.602 77.8201 62.0987 77.9388C63.6425 78.3268 65.1946 78.6735 66.7384 79.0614C69.4155 79.7328 72.0871 80.4152 74.7533 81.1086C75.4923 81.2984 76.2314 81.513 76.9623 81.7277C77.0123 81.7515 77.0549 81.7886 77.0855 81.835C77.1429 81.8845 77.0854 81.9423 76.913 81.9505H17.9513C17.6064 81.9505 17.2697 81.9505 16.9248 81.9505C16.9248 81.967 16.9002 81.967 16.8755 81.967ZM49.6412 5.2829C49.6509 4.79114 49.5148 4.30758 49.2501 3.89389C48.9854 3.48019 48.6042 3.1551 48.155 2.96006C47.7058 2.76501 47.209 2.70885 46.7279 2.79873C46.2468 2.88861 45.8032 3.12047 45.4537 3.46474C45.1043 3.80901 44.8647 4.2501 44.7656 4.73176C44.6664 5.21343 44.7123 5.71385 44.8972 6.16924C45.0821 6.62462 45.3978 7.01433 45.8039 7.28869C46.21 7.56305 46.6882 7.70962 47.1776 7.70972C47.8267 7.70975 48.4496 7.45225 48.9109 6.99319C49.3722 6.53413 49.6347 5.91061 49.6412 5.25814V5.2829ZM23.2316 46.836C23.7214 46.8491 24.204 46.7151 24.6177 46.4511C25.0314 46.1871 25.3574 45.8051 25.5539 45.3539C25.7505 44.9027 25.8087 44.4029 25.7212 43.9183C25.6337 43.4336 25.4044 42.9862 25.0627 42.6333C24.7209 42.2803 24.2822 42.0378 23.8026 41.9368C23.323 41.8358 22.8243 41.8808 22.3703 42.0661C21.9163 42.2515 21.5276 42.5687 21.2539 42.9772C20.9802 43.3858 20.8339 43.8671 20.8337 44.3596C20.8398 45.0008 21.0932 45.6146 21.5404 46.0718C21.9876 46.5291 22.5939 46.7941 23.2316 46.8112V46.836ZM60.7519 29.8317C60.2616 29.8319 59.7824 29.9793 59.3758 30.2548C58.9693 30.5303 58.6537 30.9215 58.4696 31.3784C58.2855 31.8352 58.2413 32.3369 58.3425 32.8192C58.4437 33.3014 58.6858 33.7424 59.0377 34.0856C59.3897 34.4288 59.8355 34.6585 60.3182 34.7455C60.8009 34.8325 61.2984 34.7728 61.747 34.5739C62.1957 34.375 62.5751 34.0461 62.8367 33.6292C63.0983 33.2123 63.2302 32.7265 63.2155 32.2338C63.2026 31.5856 62.9374 30.9684 62.4767 30.5147C62.0161 30.0609 61.3968 29.8068 60.7519 29.807V29.8317ZM31.1889 32.2503C31.283 32.8254 31.5758 33.3487 32.0159 33.7281C32.456 34.1075 33.0151 34.3188 33.5949 34.3247C34.1746 34.3306 34.7379 34.1308 35.1855 33.7604C35.6332 33.3901 35.9365 32.8728 36.0422 32.2998C36.1077 31.9446 36.0951 31.5792 36.0052 31.2294C35.9153 30.8795 35.7504 30.5537 35.522 30.2747C35.2935 29.9958 35.0071 29.7704 34.6829 29.6145C34.3586 29.4586 34.0043 29.3759 33.6449 29.3723C33.2855 29.3686 32.9296 29.444 32.6022 29.5933C32.2749 29.7425 31.984 29.962 31.75 30.2362C31.5159 30.5105 31.3444 30.8329 31.2475 31.1808C31.1506 31.5287 31.1306 31.8938 31.1889 32.2503ZM71.1482 46.836C71.6372 46.8359 72.1151 46.6895 72.5211 46.4156C72.927 46.1416 73.2427 45.7524 73.4279 45.2975C73.6131 44.8426 73.6595 44.3426 73.561 43.8611C73.4626 43.3797 73.2238 42.9385 72.8752 42.5939C72.5265 42.2493 72.0837 42.0168 71.6032 41.9259C71.1226 41.8351 70.626 41.8901 70.1767 42.0838C69.7273 42.2776 69.3454 42.6014 69.0797 43.014C68.814 43.4267 68.6765 43.9094 68.6846 44.4009C68.7018 45.0476 68.97 45.6618 69.432 46.1123C69.8939 46.5627 70.5129 46.8136 71.1564 46.8112L71.1482 46.836Z" fill="#405866"/>
<path d="M50.6183 28.544C50.5725 28.5047 50.5367 28.455 50.5138 28.399C50.491 28.343 50.4817 28.2823 50.487 28.222C50.4891 27.6601 50.5834 27.1023 50.7662 26.5711C51.0323 25.7548 51.4441 24.9939 51.9815 24.3259C52.3689 23.8306 52.8035 23.3744 53.279 22.9639C53.4432 22.8154 53.6239 22.6668 53.7799 22.5017C54.1878 22.0976 54.4726 21.5851 54.6011 21.0241C54.7161 20.5289 54.8146 20.0253 54.9296 19.5218C55.1576 18.5191 55.4878 17.5426 55.9151 16.608C57.0901 14.004 59.1983 11.9408 61.8194 10.8299C62.9154 10.3545 64.0614 10.0056 65.2356 9.78979C65.8186 9.67422 66.4099 9.59994 67.0012 9.54216C67.0292 9.54105 67.0572 9.54551 67.0835 9.55529C67.1098 9.56506 67.134 9.57997 67.1546 9.59913C67.1752 9.6183 67.1918 9.64136 67.2035 9.66699C67.2153 9.69262 67.2218 9.72033 67.2229 9.74852C67.2229 10.0622 67.2229 10.3759 67.2229 10.6895C67.1172 12.548 66.7209 14.3782 66.0486 16.1127C64.9966 18.8322 62.9773 21.062 60.3823 22.3696C59.6726 22.7345 58.937 23.0463 58.1815 23.3024L57.7792 23.4344C57.0734 23.6776 56.471 24.155 56.0711 24.7882C55.8165 25.1679 55.5701 25.5558 55.2909 25.9108C54.3599 27.1145 53.0665 27.9832 51.6038 28.3871C51.2802 28.4668 50.9506 28.5193 50.6183 28.544Z" fill="#203442"/>
<path d="M65.4656 38.8042C65.4201 38.7629 65.3846 38.7116 65.3618 38.6544C65.3391 38.5972 65.3296 38.5355 65.3342 38.474C65.3515 37.7288 65.5132 36.9942 65.8105 36.3113C66.2329 35.3087 66.8595 34.4062 67.6499 33.6616C67.9127 33.3975 68.2001 33.1581 68.4711 32.9105C68.9837 32.4529 69.3376 31.8427 69.4812 31.1688C69.5223 30.9707 69.5715 30.7726 69.6044 30.5827C69.7985 29.5126 70.0983 28.4646 70.4995 27.4543C71.0994 25.9035 72.0267 24.5019 73.2176 23.3462C74.4085 22.1904 75.8346 21.3081 77.3975 20.7599C78.5963 20.3066 79.8455 20.0017 81.1175 19.8519L81.4542 19.8024C82.029 19.7033 82.1112 19.7198 82.0865 20.3307C82.0412 22.3618 81.6467 24.3697 80.9204 26.2656C79.844 29.104 77.7204 31.416 74.9914 32.7206C74.3017 33.0436 73.5912 33.3194 72.8645 33.5461C72.646 33.615 72.4321 33.6977 72.224 33.7937C71.6905 34.0682 71.2376 34.4779 70.9101 34.9824C70.6473 35.3868 70.3763 35.8078 70.0889 36.1793C69.1636 37.3545 67.889 38.2019 66.451 38.5978C66.1322 38.707 65.8012 38.7763 65.4656 38.8042Z" fill="#203442"/>
<path d="M11.858 19.7529C13.9804 19.9122 16.0509 20.49 17.9513 21.4534C20.2961 22.6774 22.1387 24.6903 23.1576 27.1407C23.6413 28.2683 23.994 29.4482 24.2088 30.6571C24.2526 30.8882 24.3018 31.1111 24.3566 31.3257C24.4892 31.8802 24.7737 32.3864 25.1778 32.7868C25.342 32.9518 25.5145 33.1004 25.6869 33.249C26.1599 33.6626 26.5916 34.1216 26.9762 34.6192C27.7068 35.5374 28.1903 36.6289 28.3804 37.789C28.4159 38.0434 28.4351 38.2998 28.4379 38.5566C28.441 38.5921 28.436 38.6279 28.4231 38.6611C28.4102 38.6943 28.3898 38.7241 28.3635 38.7481C28.3373 38.772 28.3059 38.7896 28.2718 38.7993C28.2377 38.8091 28.2018 38.8108 28.1669 38.8043C27.1245 38.6407 26.1304 38.2491 25.2549 37.6572C24.3795 37.0653 23.6439 36.2875 23.1001 35.3787C22.845 34.9157 22.4986 34.5101 22.082 34.1864C21.6655 33.8628 21.1876 33.6281 20.6776 33.4966C20.0525 33.3056 19.4452 33.0597 18.8628 32.762C17.4547 32.1005 16.1906 31.1656 15.1434 30.011C14.0963 28.8564 13.2867 27.505 12.7613 26.0346C12.3352 24.8826 12.0378 23.6866 11.8744 22.4687C11.768 21.7051 11.7022 20.9363 11.6774 20.1657C11.6707 20.0872 11.6837 20.0082 11.7153 19.9361C11.7468 19.864 11.7959 19.801 11.858 19.7529Z" fill="#F39200"/>
<path d="M0.0656738 36.4185C0.146514 36.3426 0.237763 36.2786 0.336657 36.2287C1.06391 35.9874 1.80771 35.7998 2.56211 35.6674C3.64625 35.4784 4.74834 35.4147 5.84688 35.4775C7.04232 35.5388 8.21664 35.8185 9.31232 36.303C10.6755 36.8984 11.8715 37.8227 12.7942 38.9939C13.5845 40.0068 14.1956 41.1489 14.6008 42.37C14.7568 42.8323 14.9211 43.2863 15.1017 43.732C15.3971 44.5406 15.8588 45.2776 16.4567 45.8947C16.4857 45.9398 16.5052 45.9903 16.5142 46.0433C16.5142 46.0928 16.4238 46.1753 16.3335 46.1836C16.2187 46.1917 16.1035 46.1917 15.9886 46.1836C15.5635 46.1759 15.1422 46.1007 14.7404 45.9607C14.4694 45.8534 14.2066 45.7626 13.9192 45.647C13.3594 45.3592 12.7311 45.2335 12.1044 45.2838H11.7677C9.6806 45.311 7.62923 44.7382 5.85508 43.6329C4.68594 42.9191 3.64029 42.0186 2.75919 40.9668C1.69602 39.7012 0.809206 38.296 0.123163 36.79C0.0939642 36.668 0.0747329 36.5437 0.0656738 36.4185Z" fill="#203442"/>
<path d="M88.8367 35.4615C90.3434 35.4626 91.8404 35.705 93.2712 36.1796C93.378 36.2166 93.4823 36.2607 93.5832 36.3117C93.6172 36.3369 93.6436 36.3711 93.6595 36.4104C93.6754 36.4497 93.6803 36.4927 93.6735 36.5346C93.6548 36.6171 93.6273 36.6974 93.5914 36.7739C92.9019 38.3121 91.9977 39.7435 90.9061 41.025C89.5816 42.5962 87.8881 43.8105 85.979 44.5579C84.7312 45.0475 83.4013 45.2914 82.0619 45.2761C81.8976 45.2761 81.7252 45.2761 81.5527 45.2761C80.9857 45.2489 80.421 45.3653 79.9104 45.6145C79.546 45.7728 79.1731 45.9106 78.7935 46.0272C78.338 46.189 77.8484 46.2288 77.3729 46.1428C77.299 46.1428 77.2333 46.0025 77.2825 45.9447C77.3318 45.8869 77.2825 45.8951 77.3236 45.8786C77.9215 45.2615 78.3832 44.5246 78.6786 43.716C78.8757 43.2455 79.0399 42.7584 79.2041 42.2714C79.6016 41.1073 80.187 40.0169 80.9368 39.0439C82.3302 37.2434 84.3421 36.0306 86.5784 35.6431C87.3243 35.5152 88.0801 35.4544 88.8367 35.4615Z" fill="#F39200"/>
<path d="M49.6412 5.25814C49.7032 5.61409 49.687 5.97938 49.5937 6.32836C49.5003 6.67734 49.3321 7.00156 49.1009 7.27826C48.8697 7.55496 48.581 7.77743 48.2551 7.93006C47.9292 8.0827 47.5741 8.16179 47.2146 8.16179C46.8551 8.16179 46.4999 8.0827 46.174 7.93006C45.8481 7.77743 45.5595 7.55496 45.3282 7.27826C45.097 7.00156 44.9288 6.67734 44.8355 6.32836C44.7421 5.97938 44.7259 5.61409 44.7879 5.25814C44.7259 4.90219 44.7421 4.5369 44.8355 4.18792C44.9288 3.83894 45.097 3.51472 45.3282 3.23802C45.5595 2.96132 45.8481 2.73885 46.174 2.58621C46.4999 2.43358 46.8551 2.35449 47.2146 2.35449C47.5741 2.35449 47.9292 2.43358 48.2551 2.58621C48.581 2.73885 48.8697 2.96132 49.1009 3.23802C49.3321 3.51472 49.5003 3.83894 49.5937 4.18792C49.687 4.5369 49.7032 4.90219 49.6412 5.25814Z" fill="#F39200"/>
<path d="M23.2316 46.8111C22.7412 46.8109 22.2621 46.6636 21.8555 46.388C21.4489 46.1125 21.1334 45.7213 20.9493 45.2644C20.7652 44.8076 20.7209 44.3059 20.8221 43.8237C20.9234 43.3414 21.1654 42.9004 21.5174 42.5572C21.8694 42.2141 22.3152 41.9843 22.7979 41.8973C23.2805 41.8103 23.778 41.8701 24.2267 42.0689C24.6754 42.2678 25.0548 42.5967 25.3164 43.0136C25.578 43.4305 25.7099 43.9164 25.6952 44.409C25.6759 45.0528 25.4079 45.6638 24.948 46.1122C24.488 46.5607 23.8723 46.8114 23.2316 46.8111Z" fill="#F39200"/>
<path d="M60.7519 29.807C61.2417 29.7939 61.7243 29.9279 62.138 30.1919C62.5517 30.4559 62.8777 30.8379 63.0742 31.2891C63.2708 31.7403 63.3291 32.2401 63.2415 32.7247C63.154 33.2094 62.9247 33.6568 62.583 34.0097C62.2412 34.3627 61.8025 34.6052 61.3229 34.7062C60.8433 34.8072 60.3446 34.7622 59.8906 34.5769C59.4366 34.3915 59.0479 34.0743 58.7742 33.6658C58.5005 33.2572 58.3542 32.7759 58.354 32.2834C58.3538 31.6379 58.6043 31.0178 59.0522 30.5553C59.5001 30.0927 60.1099 29.8242 60.7519 29.807Z" fill="#F39200"/>
<path d="M31.1971 32.2253C31.1388 31.8688 31.1588 31.5038 31.2557 31.1558C31.3526 30.8079 31.5241 30.4855 31.7581 30.2112C31.9922 29.937 32.2831 29.7176 32.6104 29.5683C32.9378 29.4191 33.2936 29.3436 33.6531 29.3473C34.0125 29.351 34.3668 29.4336 34.691 29.5895C35.0153 29.7454 35.3017 29.9708 35.5302 30.2498C35.7586 30.5287 35.9235 30.8545 36.0134 31.2044C36.1033 31.5542 36.1159 31.9196 36.0504 32.2748C35.9447 32.8479 35.6414 33.3651 35.1937 33.7355C34.7461 34.1058 34.1828 34.3056 33.6031 34.2997C33.0233 34.2938 32.4642 34.0826 32.0241 33.7031C31.584 33.3237 31.2912 32.8004 31.1971 32.2253Z" fill="#F39200"/>
<path d="M71.1564 46.8113C70.8037 46.8697 70.4426 46.8504 70.0981 46.7545C69.7536 46.6586 69.4341 46.4886 69.1615 46.2561C68.889 46.0236 68.67 45.7343 68.5198 45.4083C68.3697 45.0822 68.2919 44.7272 68.2919 44.3679C68.2919 44.0086 68.3697 43.6537 68.5198 43.3276C68.67 43.0015 68.889 42.7122 69.1615 42.4798C69.4341 42.2473 69.7536 42.0772 70.0981 41.9814C70.4426 41.8855 70.8037 41.8661 71.1564 41.9246C71.7325 42.0201 72.2561 42.3182 72.6339 42.7657C73.0117 43.2132 73.219 43.781 73.219 44.3679C73.219 44.9548 73.0117 45.5227 72.6339 45.9702C72.2561 46.4177 71.7325 46.7158 71.1564 46.8113Z" fill="#F39200"/>
<path d="M121.34 34.091C122.218 35.1775 122.694 36.5372 122.686 37.9375C122.698 39.1082 122.367 40.2565 121.734 41.2393C121.058 42.2561 120.11 43.0602 118.999 43.5588C117.686 44.1392 116.262 44.421 114.828 44.3843H105.252V20.3638H114.384C115.829 20.3257 117.264 20.6075 118.589 21.1892C119.665 21.6647 120.585 22.4376 121.241 23.4179C121.833 24.3553 122.144 25.4443 122.136 26.5546C122.181 27.8049 121.788 29.0315 121.028 30.0215C120.255 30.9698 119.229 31.677 118.071 32.0603C119.375 32.3022 120.541 33.0268 121.34 34.091ZM109.186 30.459H114.039C115.115 30.5214 116.179 30.2095 117.053 29.5758C117.418 29.2663 117.707 28.8753 117.895 28.4338C118.083 27.9924 118.166 27.5128 118.137 27.0334C118.161 26.5534 118.076 26.0742 117.888 25.6322C117.7 25.1902 117.415 24.7971 117.053 24.4827C116.189 23.8271 115.12 23.5023 114.039 23.5665H109.186V30.459ZM117.62 40.224C118.001 39.8905 118.302 39.4742 118.5 39.0066C118.697 38.539 118.787 38.0323 118.761 37.5248C118.784 36.9957 118.688 36.4682 118.479 35.982C118.269 35.4959 117.953 35.0638 117.554 34.7183C116.648 33.9907 115.509 33.6208 114.351 33.6782H109.186V41.1898H114.483C115.608 41.2621 116.721 40.9251 117.62 40.2405V40.224Z" fill="#405866"/>
<path d="M131.728 25.8367C132.767 25.2675 133.936 24.9828 135.119 25.0112V29.1385H134.117C133.487 29.093 132.854 29.1739 132.254 29.3766C131.655 29.5792 131.102 29.8995 130.627 30.3188C129.828 31.1058 129.431 32.4815 129.437 34.4461V44.4835H125.511V25.3496H129.437V28.1232C129.985 27.17 130.776 26.3808 131.728 25.8367Z" fill="#405866"/>
<path d="M137.492 22.0974C137.136 21.7441 136.892 21.2916 136.793 20.7981C136.693 20.3045 136.743 19.7924 136.936 19.3275C137.128 18.8627 137.454 18.4662 137.873 18.189C138.291 17.9119 138.782 17.7666 139.283 17.772C139.61 17.7649 139.934 17.8257 140.237 17.9507C140.539 18.0757 140.813 18.2622 141.04 18.4984C141.504 18.9816 141.763 19.6266 141.763 20.2979C141.763 20.9692 141.504 21.6143 141.04 22.0974C140.813 22.3336 140.539 22.5201 140.237 22.6451C139.934 22.7701 139.61 22.8309 139.283 22.8238C138.951 22.8301 138.621 22.769 138.314 22.6442C138.006 22.5194 137.727 22.3334 137.492 22.0974ZM141.212 25.3497V44.4258H137.287V25.3497H141.212Z" fill="#405866"/>
<path d="M156.495 25.919C157.539 26.4406 158.452 27.1943 159.164 28.1229V25.3494H163.122V44.7392C163.15 46.3725 162.771 47.9868 162.022 49.436C161.291 50.8001 160.185 51.9235 158.835 52.6718C157.305 53.4884 155.591 53.8922 153.859 53.8439C151.584 53.9332 149.339 53.2977 147.445 52.0279C146.629 51.4692 145.946 50.735 145.446 49.8785C144.946 49.0219 144.641 48.0644 144.555 47.0752H148.447C148.76 48.0926 149.443 48.9536 150.361 49.4855C151.417 50.1175 152.63 50.4353 153.859 50.4018C154.569 50.4372 155.279 50.3267 155.946 50.0769C156.612 49.8271 157.221 49.4433 157.735 48.949C158.252 48.3811 158.648 47.7138 158.901 46.9874C159.154 46.2609 159.257 45.4905 159.205 44.7227V41.52C158.43 42.5263 157.433 43.3379 156.293 43.8909C155.153 44.4438 153.901 44.7229 152.635 44.7062C151.039 44.7216 149.471 44.2838 148.111 43.4433C146.729 42.5876 145.609 41.365 144.875 39.9103C144.061 38.3216 143.652 36.5546 143.684 34.7678C143.648 32.9991 144.058 31.2499 144.875 29.683C145.61 28.2576 146.726 27.0658 148.096 26.2407C149.466 25.4157 151.038 24.9899 152.635 25.011C153.975 25.0033 155.298 25.3145 156.495 25.919ZM158.351 31.4412C157.856 30.5252 157.124 29.7609 156.232 29.229C155.374 28.7278 154.399 28.4656 153.407 28.4696C152.4 28.463 151.409 28.7313 150.542 29.2459C149.674 29.7605 148.961 30.5021 148.48 31.3917C147.914 32.4361 147.631 33.6117 147.659 34.8008C147.634 36.0079 147.916 37.2014 148.48 38.2677C148.971 39.2071 149.71 39.9924 150.615 40.5377C151.47 41.0404 152.442 41.3054 153.432 41.3054C154.422 41.3054 155.394 41.0404 156.249 40.5377C157.144 39.9991 157.876 39.2258 158.367 38.3007C158.931 37.2433 159.213 36.0578 159.188 34.8586C159.207 33.6659 158.919 32.4886 158.351 31.4412Z" fill="#405866"/>
<path d="M180.531 25.977C181.684 26.6077 182.622 27.5708 183.225 28.7423C183.909 30.1164 184.244 31.639 184.202 33.1749V44.4258H180.309V33.7693C180.403 32.3413 179.948 30.9317 179.037 29.8319C178.084 28.9566 176.841 28.4712 175.551 28.4712C174.26 28.4712 173.017 28.9566 172.065 29.8319C171.139 30.9246 170.673 32.3371 170.767 33.7693V44.4258H166.842V18.8369H170.767V27.5702C171.449 26.7481 172.32 26.105 173.305 25.6964C174.353 25.2449 175.482 25.0118 176.622 25.0113C177.986 24.9881 179.333 25.3209 180.531 25.977Z" fill="#405866"/>
<path d="M192.332 28.5686V39.1343C192.304 39.4112 192.335 39.6908 192.421 39.9552C192.507 40.2196 192.647 40.4629 192.833 40.6697C193.322 41.0319 193.928 41.1995 194.533 41.1402H196.947V44.442H193.867C192.389 44.5483 190.924 44.0949 189.761 43.1708C188.817 42.3453 188.349 40.9916 188.349 39.1261V28.5603H186.107V25.3411H188.349V20.603H192.307V25.3411H196.922V28.5603L192.332 28.5686Z" fill="#405866"/>
<path d="M224.087 25.5229L218.199 44.4257H215.785L210.587 28.5689L205.364 44.4257H202.901L197.013 25.5229H199.476L204.165 41.9741L209.47 25.5229H211.876L217.083 42.0319L221.73 25.5229H224.087Z" fill="#405866"/>
<path d="M229.376 43.5091C227.964 42.7194 226.805 41.5429 226.033 40.1166C225.224 38.5244 224.802 36.762 224.802 34.974C224.802 33.186 225.224 31.4236 226.033 29.8315C226.825 28.4087 227.993 27.2343 229.409 26.4389C230.888 25.658 232.534 25.25 234.204 25.25C235.875 25.25 237.521 25.658 239 26.4389C240.423 27.2267 241.596 28.4028 242.383 29.8315C243.222 31.4121 243.64 33.1833 243.599 34.974C243.637 36.7622 243.21 38.5293 242.359 40.1C241.572 41.5419 240.389 42.7254 238.951 43.5091C237.472 44.3151 235.813 44.7272 234.13 44.706C232.469 44.7296 230.83 44.3171 229.376 43.5091ZM237.588 41.7427C238.67 41.1546 239.563 40.2664 240.158 39.1838C240.85 37.8927 241.187 36.4396 241.135 34.974C241.182 33.5135 240.851 32.0657 240.174 30.7725C239.591 29.6874 238.706 28.7957 237.629 28.2053C236.564 27.6523 235.383 27.3637 234.184 27.3637C232.985 27.3637 231.804 27.6523 230.739 28.2053C229.66 28.7915 228.778 29.6845 228.201 30.7725C227.58 32.0864 227.257 33.5231 227.257 34.9781C227.257 36.4332 227.58 37.8699 228.201 39.1838C228.774 40.2667 229.651 41.1565 230.723 41.7427C231.776 42.3044 232.954 42.5884 234.147 42.5681C235.345 42.5873 236.528 42.3034 237.588 41.7427Z" fill="#405866"/>
<path d="M250.045 43.5095C248.634 42.7198 247.475 41.5432 246.703 40.1169C245.86 38.5377 245.439 36.766 245.479 34.9743C245.438 33.1806 245.865 31.4074 246.719 29.8318C247.511 28.409 248.679 27.2347 250.094 26.4392C251.562 25.6356 253.211 25.2262 254.882 25.2505C256.558 25.2297 258.211 25.6388 259.686 26.4392C261.108 27.2254 262.279 28.402 263.061 29.8318C263.902 31.4116 264.324 33.1829 264.285 34.9743C264.323 36.7625 263.896 38.5296 263.045 40.1003C262.255 41.5402 261.073 42.7231 259.637 43.5095C258.158 44.3155 256.498 44.7275 254.816 44.7064C253.149 44.734 251.504 44.3213 250.045 43.5095ZM258.257 41.743C259.34 41.1549 260.232 40.2667 260.827 39.1841C261.465 37.8747 261.796 36.4362 261.796 34.9784C261.796 33.5207 261.465 32.0822 260.827 30.7728C260.241 29.6871 259.354 28.7955 258.274 28.2056C257.209 27.6526 256.027 27.3641 254.829 27.3641C253.63 27.3641 252.449 27.6526 251.384 28.2056C250.319 28.8042 249.451 29.7022 248.887 30.7893C248.265 32.1032 247.943 33.5399 247.943 34.995C247.943 36.45 248.265 37.8867 248.887 39.2006C249.459 40.2812 250.333 41.1705 251.4 41.7595C252.46 42.3191 253.64 42.6115 254.837 42.6115C256.034 42.6115 257.214 42.3191 258.274 41.7595L258.257 41.743Z" fill="#405866"/>
<path d="M267.315 29.8317C268.05 28.4197 269.166 27.244 270.534 26.4391C271.948 25.6351 273.55 25.2248 275.174 25.2505C276.747 25.2308 278.296 25.6478 279.649 26.4556C280.912 27.1932 281.93 28.2905 282.573 29.6088V18.8037H285.02V44.3926H282.556V40.1746C281.964 41.5167 280.978 42.6454 279.731 43.4103C278.348 44.2746 276.744 44.7136 275.116 44.6733C273.492 44.6976 271.891 44.2782 270.485 43.4598C269.116 42.6461 268.005 41.4581 267.282 40.0342C266.489 38.4483 266.094 36.6912 266.132 34.9165C266.102 33.1493 266.508 31.4022 267.315 29.8317ZM281.645 30.9626C281.07 29.8506 280.193 28.9259 279.115 28.2964C278.044 27.6704 276.824 27.348 275.584 27.3636C274.333 27.3416 273.098 27.6519 272.004 28.2633C270.949 28.8748 270.093 29.7809 269.54 30.8718C268.895 32.1199 268.571 33.5102 268.596 34.9165C268.563 36.3285 268.879 37.7268 269.516 38.9859C270.064 40.0945 270.92 41.0203 271.979 41.6521C273.07 42.2726 274.306 42.5889 275.56 42.5684C276.798 42.5799 278.018 42.2578 279.091 41.6356C280.167 41.0039 281.043 40.0797 281.62 38.9694C282.233 37.7203 282.552 36.3463 282.552 34.9536C282.552 33.5609 282.233 32.1869 281.62 30.9378L281.645 30.9626Z" fill="#405866"/>
<path d="M155.961 59.036C156.25 58.479 156.687 58.0136 157.223 57.6915C157.76 57.3694 158.375 57.2033 158.999 57.2118C159.529 57.1996 160.054 57.3186 160.527 57.5585C160.928 57.757 161.284 58.0382 161.57 58.3839V57.3026H163.114V64.7316H161.57V63.6255C161.284 63.9947 160.919 64.2939 160.502 64.5005C160.028 64.7452 159.5 64.8672 158.967 64.8554C158.349 64.859 157.743 64.6873 157.218 64.3602C156.685 64.0206 156.251 63.5449 155.961 62.9817C155.642 62.3594 155.481 61.6675 155.493 60.9676C155.49 60.295 155.651 59.6319 155.961 59.036ZM161.25 59.7129C161.052 59.3707 160.769 59.0862 160.428 58.8875C160.095 58.6904 159.715 58.5877 159.328 58.5903C158.939 58.5891 158.556 58.6916 158.219 58.8875C157.875 59.0814 157.591 59.367 157.398 59.7129C157.176 60.1195 157.066 60.5782 157.078 61.0419C157.067 61.5133 157.177 61.9796 157.398 62.3956C157.585 62.7632 157.869 63.0718 158.219 63.2871C158.553 63.4844 158.933 63.5898 159.32 63.5925C159.708 63.596 160.089 63.4902 160.42 63.2871C160.762 63.0905 161.046 62.8055 161.241 62.4616C161.462 62.0483 161.572 61.5849 161.562 61.1162C161.593 60.6175 161.485 60.1201 161.25 59.6799V59.7129Z" fill="#F39200"/>
<path d="M167.589 57.5338C167.994 57.3106 168.45 57.1995 168.911 57.2119V58.8545H168.525C168.28 58.8354 168.032 58.8657 167.798 58.9436C167.564 59.0216 167.348 59.1456 167.162 59.3085C166.803 59.7596 166.634 60.335 166.694 60.9099V64.8308H165.126V57.4017H166.661V58.4831C166.874 58.084 167.196 57.7546 167.589 57.5338Z" fill="#F39200"/>
<path d="M172.089 58.5904V62.7177C172.081 62.8262 172.094 62.9354 172.128 63.0388C172.162 63.1422 172.216 63.2379 172.286 63.3203C172.478 63.4614 172.715 63.5261 172.952 63.5019H173.896V64.7896H172.689C172.117 64.8275 171.55 64.6543 171.096 64.3026C170.895 64.0943 170.742 63.8447 170.647 63.571C170.552 63.2974 170.517 63.0062 170.546 62.7177V58.5904H169.667V57.3358H170.546V55.4785H172.089V57.3358H173.896V58.5904H172.089Z" fill="#F39200"/>
<path d="M175.391 56.0642C175.212 55.873 175.113 55.6207 175.113 55.3585C175.113 55.0963 175.212 54.844 175.391 54.6527C175.577 54.4726 175.826 54.3721 176.084 54.3721C176.343 54.3721 176.592 54.4726 176.778 54.6527C176.957 54.844 177.056 55.0963 177.056 55.3585C177.056 55.6207 176.957 55.873 176.778 56.0642C176.592 56.2443 176.343 56.3449 176.084 56.3449C175.826 56.3449 175.577 56.2443 175.391 56.0642ZM176.844 57.3354V64.7645H175.308V57.3354H176.844Z" fill="#F39200"/>
<path d="M181.977 58.5903H180.597V64.7894H179.086V58.5903H178.207V57.3356H179.086V56.8073C179.054 56.4637 179.098 56.1172 179.216 55.793C179.334 55.4689 179.522 55.1753 179.768 54.9336C180.385 54.4906 181.139 54.2829 181.894 54.3475V55.6269C181.548 55.5945 181.201 55.6882 180.917 55.8911C180.811 56.0166 180.73 56.1624 180.681 56.3198C180.631 56.4773 180.614 56.6431 180.63 56.8073V57.3356H182.009L181.977 58.5903Z" fill="#F39200"/>
<path d="M183.414 56.0642C183.235 55.873 183.136 55.6207 183.136 55.3585C183.136 55.0963 183.235 54.844 183.414 54.6527C183.6 54.4726 183.849 54.3721 184.107 54.3721C184.366 54.3721 184.615 54.4726 184.801 54.6527C184.98 54.844 185.079 55.0963 185.079 55.3585C185.079 55.6207 184.98 55.873 184.801 56.0642C184.615 56.2443 184.366 56.3449 184.107 56.3449C183.849 56.3449 183.6 56.2443 183.414 56.0642ZM184.867 57.3354V64.7645H183.331V57.3354H184.867Z" fill="#F39200"/>
<path d="M186.838 59.0361C187.131 58.4711 187.578 58.0016 188.127 57.6824C188.766 57.3461 189.483 57.1851 190.203 57.2156C190.924 57.246 191.624 57.4668 192.233 57.8557C192.836 58.3052 193.26 58.9543 193.432 59.6882H191.79C191.663 59.3524 191.437 59.0641 191.141 58.8628C190.81 58.6441 190.42 58.5345 190.024 58.5491C189.739 58.5399 189.456 58.5961 189.195 58.7134C188.935 58.8307 188.704 59.0059 188.521 59.226C188.12 59.7644 187.923 60.4284 187.963 61.0997C187.925 61.7734 188.122 62.4392 188.521 62.9818C188.705 63.2007 188.936 63.3748 189.196 63.4907C189.456 63.6065 189.74 63.6611 190.024 63.6504C190.407 63.6843 190.79 63.587 191.111 63.3741C191.431 63.1612 191.671 62.8454 191.79 62.4782H193.432C193.237 63.1994 192.81 63.8352 192.217 64.286C191.574 64.7477 190.797 64.9828 190.008 64.9546C189.35 64.965 188.701 64.7998 188.127 64.4758C187.58 64.1545 187.133 63.6855 186.838 63.1221C186.535 62.4913 186.378 61.8 186.378 61.0997C186.378 60.3994 186.535 59.7082 186.838 59.0774V59.0361Z" fill="#F39200"/>
<path d="M195.042 56.0644C194.903 55.9254 194.808 55.7479 194.77 55.5547C194.732 55.3614 194.753 55.1612 194.828 54.9795C194.904 54.7979 195.032 54.6431 195.196 54.5349C195.36 54.4267 195.552 54.3701 195.748 54.3722C195.875 54.3698 196 54.3934 196.118 54.4417C196.235 54.4899 196.341 54.5618 196.429 54.6529C196.614 54.8412 196.717 55.0947 196.717 55.3586C196.717 55.6226 196.614 55.8761 196.429 56.0644C196.341 56.1555 196.235 56.2274 196.118 56.2756C196 56.3239 195.875 56.3475 195.748 56.3451C195.617 56.349 195.487 56.3261 195.366 56.2778C195.245 56.2296 195.134 56.157 195.042 56.0644ZM196.495 57.3356V64.7646H194.96V57.3356H196.495Z" fill="#F39200"/>
<path d="M198.466 59.036C198.757 58.4809 199.195 58.017 199.731 57.6952C200.266 57.3734 200.88 57.2061 201.504 57.2118C202.034 57.1996 202.559 57.3186 203.032 57.5585C203.435 57.7548 203.79 58.0364 204.075 58.3839V57.3026H205.627V64.7316H204.075V63.6255C203.793 63.9945 203.43 64.2938 203.015 64.5005C202.5 64.756 201.929 64.877 201.355 64.8525C200.781 64.828 200.223 64.6587 199.731 64.3602C199.194 64.0233 198.757 63.5471 198.466 62.9817C198.153 62.3574 197.996 61.6664 198.006 60.9676C198.004 60.2961 198.162 59.6338 198.466 59.036ZM203.763 59.7129C203.563 59.3723 203.28 59.0883 202.942 58.8875C202.605 58.6916 202.222 58.5891 201.833 58.5903C201.439 58.591 201.052 58.6978 200.712 58.8996C200.373 59.1013 200.094 59.3907 199.903 59.7377C199.684 60.1451 199.576 60.6037 199.591 61.0666C199.577 61.5374 199.685 62.0037 199.903 62.4204C200.093 62.7858 200.376 63.0936 200.724 63.3119C201.055 63.5092 201.432 63.6146 201.817 63.6173C202.207 63.6197 202.591 63.514 202.925 63.3119C203.266 63.1131 203.549 62.8286 203.746 62.4864C203.96 62.0709 204.067 61.6085 204.058 61.1409C204.094 60.6359 203.992 60.1306 203.763 59.6799V59.7129Z" fill="#F39200"/>
<path d="M209.174 54.7769V64.7895H207.647V54.7769H209.174Z" fill="#F39200"/>
<path d="M214.775 56.0644C214.636 55.9254 214.542 55.7479 214.504 55.5547C214.466 55.3614 214.486 55.1612 214.562 54.9795C214.638 54.7979 214.766 54.6431 214.929 54.5349C215.093 54.4267 215.285 54.3701 215.481 54.3722C215.608 54.3698 215.734 54.3934 215.851 54.4417C215.968 54.4899 216.074 54.5618 216.163 54.6529C216.347 54.8412 216.45 55.0947 216.45 55.3586C216.45 55.6226 216.347 55.8761 216.163 56.0644C216.074 56.1555 215.968 56.2274 215.851 56.2756C215.734 56.3239 215.608 56.3475 215.481 56.3451C215.351 56.349 215.221 56.3261 215.099 56.2778C214.978 56.2296 214.868 56.157 214.775 56.0644ZM216.229 57.3356V64.7646H214.701V57.3356H216.229Z" fill="#F39200"/>
<path d="M223.562 57.575C224.022 57.823 224.399 58.2021 224.646 58.6646C224.92 59.1967 225.053 59.7909 225.032 60.3898V64.7894H223.512V60.6209C223.55 60.0645 223.374 59.5147 223.02 59.0856C222.649 58.7398 222.162 58.5476 221.657 58.5476C221.151 58.5476 220.664 58.7398 220.293 59.0856C219.93 59.5105 219.747 60.0618 219.784 60.6209V64.7894H218.249V57.3604H219.784V58.1858C220.045 57.8755 220.374 57.6298 220.745 57.4677C221.14 57.2993 221.564 57.2122 221.993 57.2118C222.538 57.2036 223.076 57.3283 223.562 57.575Z" fill="#F39200"/>
<path d="M228.776 58.5904V62.7177C228.768 62.8262 228.781 62.9354 228.815 63.0388C228.849 63.1422 228.903 63.2379 228.973 63.3203C229.165 63.4614 229.402 63.5261 229.639 63.5019H230.583V64.7896H229.368C228.798 64.8262 228.235 64.6531 227.783 64.3026C227.582 64.0943 227.429 63.8447 227.334 63.571C227.239 63.2974 227.204 63.0062 227.232 62.7177V58.5904H226.354V57.3358H227.232V55.4785H228.776V57.3358H230.583V58.5904H228.776Z" fill="#F39200"/>
<path d="M238.737 61.6364H233.071C233.081 61.9053 233.143 62.1696 233.254 62.4143C233.365 62.6591 233.523 62.8793 233.719 63.0626C233.915 63.2458 234.146 63.3884 234.396 63.4822C234.647 63.576 234.914 63.6191 235.182 63.6092C235.544 63.6345 235.905 63.5486 236.217 63.3628C236.53 63.1771 236.778 62.9003 236.931 62.5691H238.573C238.349 63.2332 237.924 63.8103 237.358 64.22C236.718 64.6743 235.948 64.9061 235.165 64.8804C234.5 64.8875 233.844 64.7226 233.26 64.4016C232.706 64.0812 232.251 63.6126 231.946 63.0479C231.618 62.4257 231.454 61.7295 231.47 61.0256C231.451 60.3233 231.61 59.6277 231.93 59.0032C232.227 58.4354 232.68 57.9654 233.235 57.6495C233.827 57.3279 234.492 57.1658 235.165 57.179C235.819 57.1673 236.464 57.3266 237.037 57.6412C237.579 57.9376 238.024 58.3847 238.319 58.9289C238.631 59.5178 238.789 60.1767 238.778 60.844C238.785 61.1088 238.771 61.3737 238.737 61.6364ZM237.194 60.39C237.199 60.1319 237.147 59.8758 237.042 59.6402C236.937 59.4046 236.781 59.1955 236.586 59.028C236.177 58.6768 235.653 58.4914 235.116 58.5079C234.616 58.4996 234.132 58.6825 233.761 59.0197C233.372 59.374 233.131 59.8639 233.088 60.39H237.194Z" fill="#F39200"/>
<path d="M241.833 54.7769V64.7895H240.298V54.7769H241.833Z" fill="#F39200"/>
<path d="M245.389 54.7769V64.7895H243.853V54.7769H245.389Z" fill="#F39200"/>
<path d="M247.491 56.0646C247.307 55.8763 247.204 55.6229 247.204 55.3589C247.204 55.0949 247.307 54.8414 247.491 54.6531C247.582 54.5608 247.691 54.4882 247.811 54.44C247.931 54.3917 248.06 54.3687 248.189 54.3725C248.316 54.3695 248.442 54.3929 248.559 54.4412C248.677 54.4895 248.783 54.5617 248.871 54.6531C249.055 54.8414 249.158 55.0949 249.158 55.3589C249.158 55.6229 249.055 55.8763 248.871 56.0646C248.783 56.1561 248.677 56.2282 248.559 56.2765C248.442 56.3248 248.316 56.3482 248.189 56.3453C248.06 56.349 247.931 56.3261 247.811 56.2778C247.691 56.2295 247.582 56.157 247.491 56.0646ZM248.945 57.3358V64.7649H247.409V57.3358H248.945Z" fill="#F39200"/>
<path d="M255.457 57.5585C255.862 57.7504 256.219 58.0327 256.5 58.384V57.3027H258.052V64.8803C258.061 65.517 257.914 66.1462 257.625 66.7128C257.337 67.2444 256.904 67.6825 256.377 67.9757C255.779 68.2965 255.108 68.4557 254.43 68.438C253.556 68.4615 252.696 68.2136 251.967 67.7281C251.647 67.5106 251.38 67.2246 251.184 66.8905C250.988 66.5564 250.868 66.1828 250.834 65.7965H252.361C252.483 66.1936 252.75 66.5296 253.108 66.7375C253.518 66.9895 253.992 67.1158 254.471 67.1007C254.747 67.1117 255.022 67.067 255.28 66.9691C255.538 66.8713 255.774 66.7224 255.974 66.5312C256.174 66.3083 256.327 66.0472 256.424 65.7636C256.522 65.48 256.561 65.1796 256.541 64.8803V63.6338C256.257 64.0213 255.885 64.3353 255.457 64.5501C254.989 64.7966 254.466 64.9215 253.938 64.9133C253.314 64.9199 252.702 64.7482 252.172 64.418C251.633 64.0837 251.195 63.6068 250.907 63.0395C250.589 62.4173 250.428 61.7253 250.439 61.0254C250.427 60.3334 250.588 59.6493 250.907 59.0361C251.196 58.4782 251.634 58.0123 252.172 57.6906C252.707 57.3743 253.317 57.2089 253.938 57.2119C254.464 57.2033 254.985 57.3222 255.457 57.5585ZM256.188 59.713C255.99 59.3708 255.707 59.0863 255.367 58.8875C255.033 58.6905 254.653 58.5878 254.266 58.5904C253.878 58.5853 253.495 58.6834 253.156 58.8747C252.817 59.066 252.534 59.3438 252.336 59.68C252.121 60.0889 252.014 60.5464 252.024 61.0089C252.014 61.4793 252.122 61.9446 252.336 62.3627C252.526 62.7281 252.81 63.0359 253.158 63.2541C253.491 63.4515 253.871 63.5568 254.258 63.5596C254.646 63.563 255.027 63.4572 255.358 63.2541C255.7 63.0575 255.984 62.7725 256.18 62.4287C256.397 62.0146 256.504 61.5512 256.492 61.0832C256.524 60.5979 256.425 60.1129 256.204 59.68L256.188 59.713Z" fill="#F39200"/>
<path d="M266.83 61.6364H261.205C261.215 61.9053 261.277 62.1696 261.388 62.4143C261.499 62.6591 261.658 62.8793 261.854 63.0626C262.05 63.2458 262.28 63.3884 262.53 63.4822C262.781 63.576 263.048 63.6191 263.316 63.6092C263.678 63.6345 264.039 63.5486 264.351 63.3628C264.664 63.1771 264.913 62.9003 265.065 62.5691H266.707C266.483 63.2332 266.058 63.8103 265.492 64.22C264.852 64.6743 264.082 64.9061 263.299 64.8804C262.634 64.8875 261.978 64.7226 261.394 64.4016C260.84 64.0812 260.385 63.6126 260.08 63.0479C259.752 62.4257 259.588 61.7295 259.604 61.0256C259.586 60.3233 259.744 59.6277 260.064 59.0032C260.361 58.4354 260.814 57.9654 261.369 57.6495C261.962 57.3279 262.626 57.1658 263.299 57.179C263.953 57.1673 264.598 57.3266 265.172 57.6412C265.713 57.9376 266.158 58.3847 266.453 58.9289C266.765 59.5178 266.923 60.1767 266.912 60.844C266.905 61.1098 266.878 61.3747 266.83 61.6364ZM265.311 60.39C265.317 60.1319 265.265 59.8758 265.16 59.6402C265.055 59.4046 264.899 59.1955 264.703 59.028C264.295 58.6768 263.771 58.4914 263.234 58.5079C262.734 58.4996 262.249 58.6825 261.879 59.0197C261.489 59.374 261.249 59.8639 261.205 60.39H265.311Z" fill="#F39200"/>
<path d="M273.704 57.575C274.164 57.823 274.541 58.2021 274.788 58.6646C275.062 59.1967 275.195 59.7909 275.174 60.3898V64.7894H273.655V60.6209C273.693 60.0645 273.516 59.5147 273.162 59.0856C272.791 58.7398 272.304 58.5476 271.799 58.5476C271.293 58.5476 270.806 58.7398 270.435 59.0856C270.072 59.5105 269.889 60.0618 269.926 60.6209V64.7894H268.391V57.3604H269.926V58.1858C270.188 57.8755 270.516 57.6298 270.887 57.4677C271.282 57.2993 271.706 57.2122 272.135 57.2118C272.68 57.2036 273.218 57.3283 273.704 57.575Z" fill="#F39200"/>
<path d="M277.079 59.0361C277.372 58.4711 277.819 58.0016 278.368 57.6824C279.007 57.3461 279.723 57.1851 280.444 57.2156C281.165 57.246 281.865 57.4668 282.474 57.8557C283.074 58.3061 283.496 58.9552 283.665 59.6882H282.022C281.899 59.3508 281.672 59.0616 281.374 58.8628C281.043 58.6441 280.653 58.5345 280.257 58.5491C279.973 58.5394 279.69 58.5953 279.431 58.7127C279.172 58.83 278.943 59.0056 278.762 59.226C278.357 59.7624 278.159 60.4279 278.204 61.0997C278.162 61.7738 278.36 62.4408 278.762 62.9818C278.944 63.2011 279.173 63.3754 279.432 63.4914C279.691 63.6073 279.973 63.6617 280.257 63.6504C280.64 63.6843 281.023 63.587 281.343 63.3741C281.664 63.1612 281.903 62.8454 282.022 62.4782H283.665C283.47 63.1994 283.043 63.8352 282.45 64.286C281.807 64.7477 281.03 64.9828 280.241 64.9546C279.583 64.9638 278.934 64.7987 278.36 64.4758C277.813 64.1545 277.366 63.6855 277.071 63.1221C276.768 62.4913 276.611 61.8 276.611 61.0997C276.611 60.3994 276.768 59.7082 277.071 59.0774L277.079 59.0361Z" fill="#F39200"/>
<path d="M291.951 61.6364H286.284C286.294 61.9053 286.356 62.1696 286.467 62.4143C286.579 62.6591 286.737 62.8793 286.933 63.0626C287.129 63.2458 287.359 63.3884 287.61 63.4822C287.861 63.576 288.127 63.6191 288.395 63.6092C288.757 63.6345 289.118 63.5486 289.431 63.3628C289.743 63.1771 289.992 62.9003 290.144 62.5691H291.786C291.559 63.2338 291.131 63.8108 290.563 64.22C289.927 64.6753 289.159 64.9074 288.379 64.8804C287.713 64.8886 287.057 64.7237 286.473 64.4016C285.917 64.0817 285.459 63.6131 285.151 63.0479C284.841 62.4194 284.679 61.7272 284.679 61.0256C284.679 60.3239 284.841 59.6317 285.151 59.0032C285.446 58.434 285.9 57.9635 286.457 57.6495C287.049 57.3279 287.714 57.1658 288.387 57.179C289.04 57.1692 289.685 57.3283 290.259 57.6412C290.798 57.9412 291.242 58.3875 291.54 58.9289C291.85 59.5184 292.005 60.1774 291.992 60.844C291.998 61.1088 291.984 61.3737 291.951 61.6364ZM290.399 60.39C290.406 60.1324 290.356 59.8765 290.252 59.6409C290.148 59.4053 289.994 59.1959 289.799 59.028C289.39 58.6775 288.866 58.4922 288.329 58.5079C287.827 58.4983 287.339 58.6813 286.966 59.0197C286.58 59.3765 286.34 59.865 286.293 60.39H290.399Z" fill="#F39200"/>
</g>
<defs>
<clipPath id="clip0_20_1807">
<rect width="292" height="82" fill="white"/>
</clipPath>
</defs>
</svg>
